<?xml version="1.0" encoding="UTF-8"?>
<svg version="1.1" xmlns="http://www.w3.org/2000/svg" width="500" height="500">
<path d="M0 0 C0.9386971 -0.00594224 1.8773942 -0.01188449 2.84453666 -0.0180068 C5.9745093 -0.03528092 9.10432804 -0.03838882 12.23434448 -0.04138184 C14.48551761 -0.05064578 16.73668761 -0.06069613 18.987854 -0.07147217 C25.0960995 -0.09766311 31.20430108 -0.11060051 37.31259394 -0.11949348 C41.13739638 -0.12536805 44.96218702 -0.13358041 48.78698349 -0.14250183 C59.40555124 -0.16671535 70.02410865 -0.18747732 80.6427021 -0.19425201 C81.32137258 -0.19469115 82.00004305 -0.19513028 82.6992793 -0.19558272 C83.37946233 -0.19601927 84.05964536 -0.19645583 84.76043999 -0.19690561 C86.13846024 -0.1977925 87.51648049 -0.19868563 88.89450073 -0.19958496 C89.91979241 -0.20024925 89.91979241 -0.20024925 90.96579705 -0.20092696 C102.00830898 -0.20880042 113.05055512 -0.24364082 124.09296466 -0.29030401 C135.46804889 -0.33797881 146.84295585 -0.36215344 158.21815765 -0.36498785 C164.58939257 -0.36707237 170.9602529 -0.37863655 177.3313942 -0.41462708 C183.33820293 -0.44789841 189.34436185 -0.45175202 195.35123062 -0.43434906 C197.53831743 -0.43282432 199.72544142 -0.44127865 201.91243744 -0.46126556 C220.46846609 -0.6206993 238.27163284 2.30239754 254.94088745 10.90588379 C255.70594604 11.27455566 256.47100464 11.64322754 257.25924683 12.02307129 C261.38669078 14.05989854 264.84610388 16.29594506 268.37838745 19.28088379 C269.40963745 19.83775879 270.44088745 20.39463379 271.50338745 20.96838379 C278.91356079 25.0869484 285.74088045 30.90522969 290.96432495 37.57775879 C292.47635701 39.45268034 292.47635701 39.45268034 294.7651062 41.66369629 C301.33710263 48.24551633 306.75904866 55.29046669 310.9916687 63.57775879 C312.04316136 65.62742899 313.18184394 67.63265575 314.3588562 69.61291504 C316.5011905 73.34016269 317.97898407 77.1624207 319.37838745 81.21838379 C319.73030151 82.18614746 319.73030151 82.18614746 320.08932495 83.17346191 C320.91433867 85.52652523 321.6488595 87.89625104 322.37838745 90.28088379 C322.71051239 91.35578568 323.04263733 92.43068756 323.38482666 93.53816223 C326.5549575 104.82644492 326.99948672 115.49392177 326.97994995 127.17150879 C326.987744 129.13446406 326.99641741 131.09741602 327.00592041 133.06036377 C327.02071577 137.13805186 327.02034957 141.21539299 327.00973511 145.29309082 C326.9980445 150.51889441 327.03230751 155.74330341 327.07842445 160.96887589 C327.10783472 165.00606571 327.10965362 169.04291461 327.103405 173.08019257 C327.10443086 175.00834713 327.1148961 176.9365209 327.13502884 178.86457062 C327.15965543 181.54758051 327.14625519 184.22780288 327.12301636 186.9107666 C327.13830383 187.70346451 327.15359131 188.49616241 327.16934204 189.31288147 C327.12683105 191.52874756 327.12683105 191.52874756 326.37838745 195.28088379 C323.25971954 197.94560186 320.45852619 199.65317014 316.37838745 200.28088379 C316.37838745 200.94088379 316.37838745 201.60088379 316.37838745 202.28088379 C314.5854187 203.86682129 314.5854187 203.86682129 312.19088745 205.65588379 C311.36717651 206.27979004 310.54346558 206.90369629 309.6947937 207.54650879 C308.93037964 208.11885254 308.16596558 208.69119629 307.37838745 209.28088379 C304.33644529 211.63147546 301.57789654 214.05067176 298.87252808 216.7779541 C297.20917107 218.45109556 295.53259852 220.11035638 293.85494995 221.76916504 C292.57104909 223.04385759 291.28719586 224.31859813 290.00338745 225.59338379 C289.3691687 226.21922363 288.73494995 226.84506348 288.08151245 227.48986816 C287.44987183 228.11828613 286.8182312 228.7467041 286.16744995 229.39416504 C285.60751343 229.94886475 285.0475769 230.50356445 284.47067261 231.07507324 C282.66807582 232.97547721 280.96143915 234.91572051 279.25411987 236.90075684 C274.90618843 241.89479923 270.25519458 246.56610526 265.5776062 251.24963379 C264.66002029 252.1705481 263.74243439 253.0914624 262.79704285 254.0402832 C260.87173152 255.97153001 258.9444184 257.90075277 257.01583862 259.82873535 C254.54145845 262.30301287 252.07409093 264.7841629 249.608325 267.26702118 C247.24838655 269.64069571 244.88132863 272.00722353 242.5151062 274.37463379 C241.62868942 275.26823608 240.74227264 276.16183838 239.82899475 277.08251953 C239.01086807 277.89756958 238.19274139 278.71261963 237.349823 279.55236816 C236.62925217 280.27436401 235.90868134 280.99635986 235.16627502 281.74023438 C233.37838745 283.28088379 233.37838745 283.28088379 231.37838745 283.28088379 C231.37838745 283.94088379 231.37838745 284.60088379 231.37838745 285.28088379 C229.80897944 286.71901052 228.1696471 288.08118429 226.50338745 289.40588379 C224.98551636 290.61631348 224.98551636 290.61631348 223.4369812 291.85119629 C222.42764526 292.65299316 221.41830933 293.45479004 220.37838745 294.28088379 C219.56498901 294.95893066 218.75159058 295.63697754 217.9135437 296.33557129 C209.08723082 303.64922157 199.40427304 309.82780431 189.3041687 315.23791504 C187.54434144 316.19100607 185.83284801 317.23198499 184.12838745 318.28088379 C160.16480845 331.78072807 131.68546526 333.28238026 105.37838745 327.28088379 C103.04816056 326.92648546 100.71542924 326.58713736 98.37838745 326.28088379 C95.24463033 333.47102702 93.08186439 340.63053826 91.37838745 348.28088379 C91.19405151 349.10330566 91.00971558 349.92572754 90.8197937 350.77307129 C89.31554927 357.88616509 88.35380652 365.07938558 87.37838745 372.28088379 C69.94399636 370.96508069 56.37652123 361.24498031 44.37838745 349.28088379 C43.62428589 348.54998535 42.87018433 347.81908691 42.0932312 347.06604004 C36.19742507 340.96575508 32.90495554 333.89648525 29.37838745 326.28088379 C28.85631714 325.40947754 28.33424683 324.53807129 27.7963562 323.64025879 C25.22349244 317.5447689 24.88018603 310.84581195 24.0932312 304.31408691 C23.21554276 298.00148159 22.65165397 294.3401609 17.37838745 290.28088379 C15.50881831 288.33441038 13.65511836 286.38031475 11.81588745 284.40588379 C11.34731323 283.91475098 10.87873901 283.42361816 10.39596558 282.91760254 C1.24538154 273.06312742 -4.4584525 259.5926043 -5.62161255 246.28088379 C-5.69251099 245.48553223 -5.76340942 244.69018066 -5.8364563 243.87072754 C-6.53912854 227.03470064 -0.48051195 210.6946748 9.37838745 197.28088379 C9.99713745 196.38627441 10.61588745 195.49166504 11.25338745 194.56994629 C15.48728708 188.53333159 20.03150574 183.3396102 25.37838745 178.28088379 C26.15440308 177.49197754 26.9304187 176.70307129 27.72994995 175.89025879 C59.56959858 144.5202215 104.23073339 126.06604184 148.78366089 125.89367676 C163.71696083 126.09523328 178.58188194 129.34158845 191.37838745 137.28088379 C192.24463745 137.81584473 193.11088745 138.35080566 194.00338745 138.90197754 C202.47970045 144.49686097 213.68264044 153.22573498 217.03463745 163.24182129 C218.03464733 168.99187812 217.30574113 175.14893405 214.22213745 180.15979004 C203.86213336 193.02346178 187.75290846 200.28575139 172.51608276 205.5279541 C170.95062586 206.07933248 169.3937067 206.65511556 167.84225464 207.24475098 C145.01020017 215.8748934 115.79455515 220.64543293 92.43307495 211.70275879 C84.71560746 208.11048492 78.62905883 204.51333635 75.15182495 196.42932129 C72.44470024 188.71309508 72.04537182 182.32244546 73.37838745 174.28088379 C70.4495792 175.67872409 67.72959438 177.0174786 65.12838745 178.96838379 C63.37838745 180.28088379 63.37838745 180.28088379 61.37838745 180.28088379 C61.11026245 180.92025879 60.84213745 181.55963379 60.56588745 182.21838379 C59.37838745 184.28088379 59.37838745 184.28088379 56.37838745 185.28088379 C55.64934659 186.92122572 54.99183502 188.59390297 54.37838745 190.28088379 C53.38503544 191.95152126 52.38406988 193.61763978 51.37838745 195.28088379 C50.65503549 196.60612936 49.94764269 197.94016624 49.25338745 199.28088379 C48.92080933 199.92025879 48.5882312 200.55963379 48.24557495 201.21838379 C46.20850062 206.06331734 46.1957346 210.96943818 46.19088745 216.15588379 C46.17864136 216.83779785 46.16639526 217.51971191 46.15377808 218.22229004 C46.13423678 225.06174315 47.68155654 230.65511719 51.37838745 236.46838379 C54.28214311 241.0780959 54.28214311 241.0780959 55.4369812 243.51135254 C56.66286504 245.81560723 58.04826034 246.22856832 60.37838745 247.28088379 C60.70838745 247.94088379 61.03838745 248.60088379 61.37838745 249.28088379 C60.87049683 250.00791504 60.3626062 250.73494629 59.83932495 251.48400879 C47.56688654 269.41004242 41.07564382 287.1811023 45.0697937 309.06994629 C47.14409254 316.34301083 50.4952951 322.81941812 54.37838745 329.28088379 C54.85276245 330.13553223 55.32713745 330.99018066 55.81588745 331.87072754 C57.43005307 334.36057801 59.03793591 335.95893636 61.31588745 337.84338379 C64.13669823 340.2190758 66.77004052 342.67253686 69.37838745 345.28088379 C70.03838745 345.61088379 70.69838745 345.94088379 71.37838745 346.28088379 C71.37838745 346.94088379 71.37838745 347.60088379 71.37838745 348.28088379 C72.03838745 348.28088379 72.69838745 348.28088379 73.37838745 348.28088379 C73.53307495 346.70307129 73.53307495 346.70307129 73.69088745 345.09338379 C76.38494173 324.16833209 85.35956168 305.68813822 101.31588745 291.59338379 C104.37838745 289.28088379 104.37838745 289.28088379 106.37838745 289.28088379 C106.70838745 288.29088379 107.03838745 287.30088379 107.37838745 286.28088379 C108.71936799 285.31812853 110.07376732 284.37069488 111.4760437 283.49963379 C112.82944608 282.63256697 114.14731136 281.7089328 115.4369812 280.74963379 C122.32069676 275.64198649 129.66000199 271.96658169 137.35006714 268.26281738 C140.5002971 266.7377542 143.62600871 265.16461888 146.75338745 263.59338379 C147.88647339 263.02748535 149.01955933 262.46158691 150.1869812 261.87854004 C152.20211939 260.86973769 154.21540098 259.85721028 156.2260437 258.83947754 C157.08069214 258.4076416 157.93534058 257.97580566 158.81588745 257.53088379 C159.53647339 257.16479004 160.25705933 256.79869629 160.9994812 256.42150879 C163.41922222 255.26130455 165.87631676 254.21336623 168.34591675 253.16467285 C180.38903489 247.92790556 192.21279292 242.20428698 203.37838745 235.28088379 C204.21241089 234.79619629 205.04643433 234.31150879 205.9057312 233.81213379 C209.2182381 231.7607867 212.16500383 229.34366261 215.1947937 226.90197754 C217.37838745 225.28088379 217.37838745 225.28088379 219.5307312 224.31604004 C221.89559785 222.99111475 222.27452483 221.71839269 223.37838745 219.28088379 C224.44474126 217.97815936 225.55204196 216.70823553 226.69088745 215.46838379 C246.33998491 193.37840466 250.9950047 163.07600233 249.61032104 134.3951416 C248.00159154 112.79413788 241.15211374 94.04094896 227.37838745 77.28088379 C226.8576062 76.61314941 226.33682495 75.94541504 225.80026245 75.25744629 C218.72873263 66.57250918 209.29384194 60.31401373 199.37838745 55.28088379 C198.78284058 54.9470166 198.1872937 54.61314941 197.57369995 54.26916504 C173.57240899 41.23842124 142.96396426 40.45732028 117.08981323 47.94299316 C111.79902813 49.57361729 106.58147429 51.39125144 101.37838745 53.28088379 C100.42061401 53.62119629 99.46284058 53.96150879 98.4760437 54.31213379 C78.76324975 61.72439991 60.87288914 74.51350229 44.82247925 87.92614746 C44.16159302 88.47375732 43.50070679 89.02136719 42.8197937 89.58557129 C42.22883911 90.08041016 41.63788452 90.57524902 41.02902222 91.08508301 C39.37838745 92.28088379 39.37838745 92.28088379 36.37838745 93.28088379 C36.37838745 93.94088379 36.37838745 94.60088379 36.37838745 95.28088379 C34.8744812 96.72619629 34.8744812 96.72619629 32.81588745 98.40588379 C29.16040145 101.50594259 26.0505652 104.80482505 22.9526062 108.45275879 C20.88381012 110.85523166 18.62003957 113.03923167 16.37838745 115.28088379 C14.82614736 116.93770743 13.28550721 118.6054367 11.75338745 120.28088379 C10.99799683 121.10588379 10.2426062 121.93088379 9.46432495 122.78088379 C7.31503989 125.22574725 7.31503989 125.22574725 5.72994995 128.03088379 C4.37838745 130.28088379 4.37838745 130.28088379 2.37838745 131.28088379 C1.34825468 132.92909623 0.35486464 134.60032731 -0.62161255 136.28088379 C-1.68847894 137.85182937 -2.75598867 139.42236123 -3.83181763 140.98718262 C-8.52272924 147.8429868 -12.81505477 154.88006261 -16.93411255 162.09338379 C-17.42516479 162.95189941 -17.91621704 163.81041504 -18.42214966 164.69494629 C-26.65995392 179.26532651 -32.39965807 194.23030017 -37.83157349 210.01623535 C-38.46022513 211.81826646 -39.11799846 213.61013198 -39.78567505 215.39807129 C-45.42754885 230.85588811 -48.45710167 247.85112186 -48.62161255 264.28088379 C-48.64062622 265.45280273 -48.65963989 266.62472168 -48.67922974 267.83215332 C-48.73362739 271.29302601 -48.76929553 274.75375653 -48.79382324 278.21496582 C-48.80381866 279.60642389 -48.81611233 280.99786784 -48.83099365 282.38928223 C-48.95153775 295.54798026 -47.80211975 308.30615891 -44.30911255 321.03088379 C-44.09255005 321.83453369 -43.87598755 322.63818359 -43.65286255 323.46618652 C-41.90378082 329.73014865 -39.606878 335.49810542 -36.62161255 341.28088379 C-36.23231567 342.11619629 -35.8430188 342.95150879 -35.44192505 343.81213379 C-28.5228845 358.46421966 -14.04348066 379.58972523 1.37838745 386.28088379 C1.37838745 386.94088379 1.37838745 387.60088379 1.37838745 388.28088379 C2.07061401 388.53354004 2.76284058 388.78619629 3.4760437 389.04650879 C6.78094465 390.4520925 9.73158856 392.19100144 12.81588745 394.03088379 C19.76632445 398.07589303 26.87764242 401.36068272 34.37838745 404.28088379 C35.44444214 404.71143066 36.51049683 405.14197754 37.6088562 405.58557129 C64.39946089 415.51258476 93.55068771 416.96691341 121.37838745 411.28088379 C122.53209839 411.06432129 123.68580933 410.84775879 124.8744812 410.62463379 C151.65737292 405.11725826 178.15484427 390.09424569 197.9604187 371.42541504 C199.37838745 370.28088379 199.37838745 370.28088379 201.37838745 370.28088379 C201.64651245 369.64150879 201.91463745 369.00213379 202.19088745 368.34338379 C203.37838745 366.28088379 203.37838745 366.28088379 206.37838745 365.28088379 C207.06587174 363.95816402 207.7305784 362.6234804 208.37838745 361.28088379 C209.96432495 359.75354004 209.96432495 359.75354004 211.75338745 358.34338379 C214.7318174 355.9098641 216.9836934 353.29642444 219.37838745 350.28088379 C220.03838745 350.28088379 220.69838745 350.28088379 221.37838745 350.28088379 C221.64651245 349.64150879 221.91463745 349.00213379 222.19088745 348.34338379 C223.37838745 346.28088379 223.37838745 346.28088379 226.37838745 345.28088379 C226.66713745 344.53838379 226.95588745 343.79588379 227.25338745 343.03088379 C228.66752118 339.57411245 230.72487433 337.91578882 233.37838745 335.28088379 C235.33799901 332.99769224 237.20240551 330.6428418 239.06588745 328.28088379 C239.58771606 327.62370361 240.10954468 326.96652344 240.64718628 326.28942871 C245.62483259 320.00438418 250.52620599 313.66324666 255.37838745 307.28088379 C255.79282104 306.73738281 256.20725464 306.19388184 256.63424683 305.63391113 C257.86466125 304.01863452 259.09101857 302.40036833 260.31588745 300.78088379 C261.02616089 299.84244629 261.73643433 298.90400879 262.4682312 297.93713379 C264.42624965 295.31059974 264.42624965 295.31059974 266.0072937 292.43713379 C266.45975464 291.72557129 266.91221558 291.01400879 267.37838745 290.28088379 C268.03838745 290.28088379 268.69838745 290.28088379 269.37838745 290.28088379 C269.62846558 289.55771973 269.8785437 288.83455566 270.13619995 288.08947754 C271.48771811 285.03368648 273.11221257 282.90067379 275.25338745 280.34338379 C278.21905192 276.78571405 280.82218444 273.14227717 283.37838745 269.28088379 C290.0036728 260.29364288 297.09306373 251.735457 304.37838745 243.28088379 C305.02807495 242.51775879 305.67776245 241.75463379 306.34713745 240.96838379 C318.18211044 227.19677885 318.18211044 227.19677885 324.37838745 224.28088379 C325.03838745 224.28088379 325.69838745 224.28088379 326.37838745 224.28088379 C326.51959663 239.52955433 326.62486037 254.77819451 326.68926048 270.02737522 C326.71997983 277.11055641 326.76173006 284.19332752 326.83102417 291.27624512 C326.8915094 297.46179794 326.92969502 303.64705337 326.94291842 309.83289379 C326.95062806 313.09754258 326.97159455 316.36116074 327.01276779 319.62558174 C327.26585851 340.55122468 324.81022768 360.32987147 315.37838745 379.28088379 C314.9401062 380.17162598 314.50182495 381.06236816 314.05026245 381.98010254 C307.08487985 395.39420474 296.97861625 411.49519999 284.16744995 419.99963379 C282.26677476 421.28585587 282.26677476 421.28585587 280.4526062 423.21838379 C261.9316742 441.63467775 232.9447265 450.87729054 207.45869446 450.96963501 C205.33776653 450.96151223 203.21684057 450.95285837 201.09591675 450.94372559 C198.81208466 450.95215844 196.52825952 450.96269218 194.2444458 450.97514343 C188.09334597 451.0020009 181.94265493 450.99754088 175.79152274 450.98544288 C170.63303113 450.97826687 165.474613 450.98684124 160.31612712 450.99534827 C147.44035204 451.01637514 134.56482657 451.00736414 121.68906752 450.98387197 C111.25147421 450.96563697 100.81423505 450.97651825 90.37667847 451.00817871 C78.19935862 451.04511538 66.02230483 451.06125155 53.84492427 451.04876643 C47.41970063 451.04231766 40.99477434 451.044097 34.5695858 451.06809044 C28.52237122 451.08952635 22.47587754 451.08112717 16.42870712 451.05099678 C14.22670168 451.04473221 12.02463875 451.04837533 9.8226757 451.0634079 C-16.90472789 451.23089408 -39.54909961 443.14292488 -61.62161255 428.28088379 C-62.23278931 427.86983398 -62.84396606 427.45878418 -63.47366333 427.03527832 C-67.25038971 424.42328905 -70.43921836 421.61632844 -73.62161255 418.28088379 C-74.77210083 417.18260254 -74.77210083 417.18260254 -75.9458313 416.06213379 C-85.72561919 406.62180961 -93.53644371 396.46865749 -99.62161255 384.28088379 C-100.12305786 383.3488916 -100.62450317 382.41689941 -101.1411438 381.45666504 C-105.2331498 373.6973929 -108.24979237 365.71372363 -110.62161255 357.28088379 C-110.8715629 356.47776544 -111.12151325 355.67464708 -111.37903786 354.84719181 C-114.4377622 343.72734867 -114.04351386 332.59451429 -114.00979614 321.14782715 C-114.01386693 318.82057957 -114.01921165 316.49333394 -114.02572632 314.16609192 C-114.03934449 307.87695173 -114.03412419 301.58796001 -114.02458906 295.2988174 C-114.01773901 289.37074071 -114.02298202 283.44268195 -114.02737065 277.51460475 C-114.0359029 265.05962021 -114.02612418 252.60470217 -114.00996955 240.14972854 C-113.99656518 229.48532452 -113.99889962 218.82101848 -114.01272583 208.15661621 C-114.02881461 195.74141933 -114.03508243 183.32628055 -114.02588904 170.9110747 C-114.02122362 164.35033445 -114.02055664 157.78966156 -114.0304985 151.2289257 C-114.03919395 145.06051764 -114.03309908 138.89229382 -114.01581573 132.72390556 C-114.01186484 130.46652023 -114.01296085 128.20911928 -114.01960373 125.95174026 C-114.07637855 104.6909695 -114.07637855 104.6909695 -110.62161255 94.28088379 C-110.09679578 92.30276968 -109.57566198 90.32367285 -109.05911255 88.34338379 C-99.00079995 56.44087323 -76.66672748 28.8860577 -46.95755005 13.30432129 C-37.59676544 8.64275094 -27.66379949 5.16380322 -17.62161255 2.28088379 C-16.45215654 1.94292534 -15.28270054 1.60496689 -14.07780647 1.25676727 C-9.35988184 0.09001404 -4.84097131 -0.00970537 0 0 Z " fill="#E27602" transform="translate(143.62161254882813,24.7191162109375)"/>
<path d="M0 0 C1.64630328 0.14042877 3.29204179 0.28749329 4.9375 0.4375 C6.31228516 0.55931641 6.31228516 0.55931641 7.71484375 0.68359375 C10 1 10 1 11 2 C13.32817964 2.36760731 15.6618385 2.70241581 18 3 C18 3.66 18 4.32 18 5 C18.804375 4.979375 19.60875 4.95875 20.4375 4.9375 C23 5 23 5 24 6 C35.53399914 7.64596046 47.42016372 7.17314845 59.03833008 7.20532227 C61.24711789 7.21491682 63.45590392 7.22492779 65.66468811 7.23532104 C71.62652662 7.26220536 77.58837291 7.28330344 83.55023789 7.30332303 C89.79357183 7.32528497 96.03688224 7.35262343 102.28019714 7.37937927 C112.74806692 7.42352086 123.21594522 7.46437882 133.68383789 7.50268555 C144.45956364 7.54212786 155.23527864 7.58357459 166.01098633 7.62768555 C166.67665793 7.63040982 167.34232954 7.63313409 168.02817301 7.63594092 C171.36808685 7.64962183 174.70800053 7.66334395 178.04791415 7.67708123 C205.69858736 7.79069017 233.34928326 7.89757462 261 8 C261 8.33 261 8.66 261 9 C231.41992519 9.13727507 201.83986556 9.24326307 172.2595384 9.30639198 C168.75660255 9.313895 165.25366733 9.32166106 161.75073242 9.32958984 C161.05344647 9.33116371 160.35616052 9.33273757 159.63774469 9.33435912 C148.39037683 9.36037112 137.14319553 9.40762473 125.89593784 9.46291678 C114.3301672 9.51929471 102.76450444 9.55196078 91.19860286 9.56453097 C84.71267395 9.57231474 78.22716623 9.59045203 71.74137306 9.63438034 C65.62062738 9.67549527 59.5004712 9.68759119 53.37960052 9.67864609 C51.14854654 9.68027948 48.91747019 9.69197998 46.68653679 9.71523285 C30.0980049 9.87946513 15.35905669 7.46580468 0 1 C0 0.67 0 0.34 0 0 Z " fill="#E07C17" transform="translate(107,466)"/>
<path d="M0 0 C19.31573658 -0.09369203 38.63142666 -0.16410056 57.94734383 -0.20724869 C66.91728464 -0.22782102 75.88708376 -0.25583892 84.85693359 -0.30175781 C92.68056269 -0.34178962 100.50408911 -0.36747149 108.3278178 -0.37635398 C112.46547155 -0.38154124 116.60283169 -0.39362015 120.74039078 -0.42292023 C124.64579367 -0.45034862 128.55078587 -0.45839056 132.45627594 -0.45243073 C133.87914396 -0.45351885 135.3020277 -0.46130808 136.72481155 -0.4768219 C146.5856083 -0.57894342 154.73219412 0.8439046 164 4 C164 4.33 164 4.66 164 5 C161.87465341 4.85930804 159.74972471 4.71229079 157.625 4.5625 C156.44164062 4.48128906 155.25828125 4.40007813 154.0390625 4.31640625 C151 4 151 4 149 3 C146.41621263 2.7599978 143.85851467 2.58460534 141.26831055 2.45727539 C140.43697192 2.41545419 139.6056333 2.37363298 138.74910259 2.33054447 C126.44870318 1.77383017 114.13342162 1.76959701 101.82273316 1.69667697 C98.22999994 1.67445998 94.63730418 1.64725 91.04460144 1.62062073 C84.27372197 1.57116725 77.50282118 1.52605759 70.73190087 1.48259836 C63.00969604 1.43281506 55.28752886 1.37805251 47.56536067 1.32291877 C31.71027543 1.2098278 15.85515527 1.10283682 0 1 C0 0.67 0 0.34 0 0 Z " fill="#DE7A0E" transform="translate(216,25)"/>
<path d="M0 0 C0.04680518 15.49060434 0.08203049 30.98120336 0.10362434 46.47186184 C0.11391906 53.66510322 0.12794472 60.85830056 0.15087891 68.05151367 C0.17086822 74.3240924 0.18372955 80.59663922 0.18817699 86.86924893 C0.19077503 90.18785092 0.19790688 93.50634083 0.21146011 96.82491875 C0.2260171 100.53754929 0.22797615 104.24999191 0.22705078 107.96264648 C0.23424133 109.05237762 0.24143188 110.14210876 0.24884033 111.26486206 C0.23209352 117.49053695 -0.41489497 122.97404435 -2 129 C-2.33 129 -2.66 129 -3 129 C-3.02730494 126.81257121 -3.04653255 124.62504093 -3.0625 122.4375 C-3.07990234 120.61025391 -3.07990234 120.61025391 -3.09765625 118.74609375 C-3 115 -3 115 -2.50672913 111.91795349 C-1.88534959 107.11354025 -1.82379075 102.40575241 -1.79467773 97.56665039 C-1.78477814 96.5415033 -1.77487854 95.5163562 -1.76467896 94.46014404 C-1.73322354 91.08933785 -1.70836988 87.71851759 -1.68359375 84.34765625 C-1.66301043 82.00353134 -1.6420136 79.65941002 -1.62062073 77.31529236 C-1.56554237 71.15867026 -1.5160705 65.00201545 -1.46777344 58.84533691 C-1.41745424 52.55766911 -1.36182265 46.27004855 -1.30664062 39.98242188 C-1.19923326 27.65498831 -1.09774986 15.32751366 -1 3 C-5.53205793 5.14048719 -8.59363599 7.29307446 -12 11 C-12.66 10.67 -13.32 10.34 -14 10 C-4.49315068 0 -4.49315068 0 0 0 Z " fill="#D78123" transform="translate(470,249)"/>
<path d="M0 0 C4.29 0 8.58 0 13 0 C-2.38043589 10.25362393 -27.78209418 8.99566622 -45.125 5.5625 C-47.41706015 5.04340104 -49.70875977 4.5227061 -52 4 C-54.3302269 3.64560167 -56.66295821 3.30625357 -59 3 C-59.99 5.31 -60.98 7.62 -62 10 C-63.0326802 7.21176345 -63.04509293 6.1322726 -62.0625 3.25 C-61.711875 2.5075 -61.36125 1.765 -61 1 C-54.375 0.875 -54.375 0.875 -51 2 C-47.4509061 2.47975645 -43.88027304 2.75546911 -40.3125 3.0625 C-39.28552002 3.15120361 -38.25854004 3.23990723 -37.20043945 3.33129883 C-23.28887569 5.22118719 -23.28887569 5.22118719 -10 3 C-7.66810655 2.73044167 -5.33678493 2.55492623 -2.99609375 2.37890625 C-2.33738281 2.25386719 -1.67867188 2.12882812 -1 2 C-0.67 1.34 -0.34 0.68 0 0 Z " fill="#E2A155" transform="translate(301,348)"/>
<path d="M0 0 C1.04478516 -0.00128906 2.08957031 -0.00257812 3.16601562 -0.00390625 C4.81053711 0.00189453 4.81053711 0.00189453 6.48828125 0.0078125 C7.56529297 0.00394531 8.64230469 0.00007813 9.75195312 -0.00390625 C24.6823708 0.01440205 24.6823708 0.01440205 26.80078125 2.1328125 C28.32006163 2.20461214 29.84245607 2.21673257 31.36328125 2.1953125 C32.18957031 2.18628906 33.01585937 2.17726563 33.8671875 2.16796875 C34.82431641 2.15056641 34.82431641 2.15056641 35.80078125 2.1328125 C35.80078125 3.1228125 35.80078125 4.1128125 35.80078125 5.1328125 C35.05957031 5.07222656 34.31835938 5.01164062 33.5546875 4.94921875 C31.28064951 4.76829773 29.00579531 4.59751513 26.73046875 4.43359375 C24.14949599 4.23604415 21.57080997 4.00526928 18.99609375 3.73828125 C4.43854828 2.36428234 -9.85854454 4.64090659 -24.19921875 7.1328125 C-23.86921875 6.1428125 -23.53921875 5.1528125 -23.19921875 4.1328125 C-20.88921875 4.1328125 -18.57921875 4.1328125 -16.19921875 4.1328125 C-16.19921875 3.4728125 -16.19921875 2.8128125 -16.19921875 2.1328125 C-15.25949219 2.04193359 -15.25949219 2.04193359 -14.30078125 1.94921875 C-13.48351562 1.86542969 -12.66625 1.78164062 -11.82421875 1.6953125 C-11.01210938 1.61410156 -10.2 1.53289062 -9.36328125 1.44921875 C-5.97001154 0.95309087 -3.58355563 0.00425276 0 0 Z " fill="#DA7C17" transform="translate(284.19921875,64.8671875)"/>
<path d="M0 0 C5.96097234 4.65590739 12.65937427 10.09639837 14 17.9375 C14.31177048 24.04100671 13.34611034 29.74754523 9.4375 34.5625 C8.633125 35.366875 7.82875 36.17125 7 37 C6.67 37 6.34 37 6 37 C6 35.02 6 33.04 6 31 C6.99 31.33 7.98 31.66 9 32 C9 29.69 9 27.38 9 25 C9.66 24.67 10.32 24.34 11 24 C11 22.35 11 20.7 11 19 C10.34 18.67 9.68 18.34 9 18 C9 18.99 9 19.98 9 21 C8.01 21.33 7.02 21.66 6 22 C5.67 20.35 5.34 18.7 5 17 C5.66 17 6.32 17 7 17 C7.33 14.69 7.66 12.38 8 10 C6.68 10 5.36 10 4 10 C4 8.35 4 6.7 4 5 C3.01 5 2.02 5 1 5 C0.67 3.35 0.34 1.7 0 0 Z " fill="#DF7708" transform="translate(347,172)"/>
<path d="M0 0 C0.33 0 0.66 0 1 0 C1 18.81 1 37.62 1 57 C0.67 57 0.34 57 0 57 C-0.13277344 56.22914063 -0.26554687 55.45828125 -0.40234375 54.6640625 C-0.57894531 53.66117187 -0.75554687 52.65828125 -0.9375 51.625 C-1.11152344 50.62726563 -1.28554687 49.62953125 -1.46484375 48.6015625 C-1.87712062 46.03090344 -1.87712062 46.03090344 -3 44 C-3.15306901 42.18828902 -3.24946661 40.3716206 -3.31640625 38.5546875 C-3.35830078 37.47832031 -3.40019531 36.40195312 -3.44335938 35.29296875 C-3.48267578 34.16503906 -3.52199219 33.03710938 -3.5625 31.875 C-3.60568359 30.73933594 -3.64886719 29.60367187 -3.69335938 28.43359375 C-3.7996604 25.62252232 -3.90169405 22.81136055 -4 20 C-3.01 19.67 -2.02 19.34 -1 19 C-1.01160156 17.79601562 -1.02320312 16.59203125 -1.03515625 15.3515625 C-1.04453434 13.77604321 -1.05363452 12.20052225 -1.0625 10.625 C-1.07087891 9.8309375 -1.07925781 9.036875 -1.08789062 8.21875 C-1.11328125 2.2265625 -1.11328125 2.2265625 0 0 Z " fill="#E09A4B" transform="translate(94,274)"/>
<path d="M0 0 C0.66 0 1.32 0 2 0 C0 6 0 6 -0.80078125 7.83984375 C-4.83850388 17.80976551 -3.90381981 29.83663066 -1 40 C-4.06019917 37.95986722 -4.75625536 37.29851443 -6 34 C-6.1953125 31.69750977 -6.1953125 31.69750977 -6.125 29.19140625 C-6.10953125 28.27939453 -6.0940625 27.36738281 -6.078125 26.42773438 C-6.0261481 24.52148147 -5.9740652 22.61523145 -5.921875 20.70898438 C-5.77111412 14.13167787 -5.77111412 14.13167787 -8 8 C-7.34 7.34 -6.68 6.68 -6 6 C-5.01 6 -4.02 6 -3 6 C-2.67 4.68 -2.34 3.36 -2 2 C-1.34 2 -0.68 2 0 2 C0 1.34 0 0.68 0 0 Z " fill="#DE9B4D" transform="translate(193,218)"/>
<path d="M0 0 C0.33 0 0.66 0 1 0 C1.495 6.93 1.495 6.93 2 14 C1.01 14.33 0.02 14.66 -1 15 C-1.89030822 17.25870617 -1.89030822 17.25870617 -2.4375 20 C-3.57527747 24.6293697 -5.06505869 28.73955969 -7.1328125 33.02734375 C-8.0746159 34.97932451 -8.0746159 34.97932451 -8.4296875 37.12890625 C-9 39 -9 39 -12 41 C-12.33 41.99 -12.66 42.98 -13 44 C-15.0625 44.6875 -15.0625 44.6875 -17 45 C-16.25057863 43.64551302 -15.50042574 42.29143078 -14.75 40.9375 C-14.29109375 40.10476562 -13.8321875 39.27203125 -13.359375 38.4140625 C-12.29109005 36.51693578 -11.15717734 34.65675138 -10 32.8125 C-4.27126544 22.72343305 -1.94628252 11.29793267 0 0 Z " fill="#DF9744" transform="translate(392,190)"/>
<path d="M0 0 C-0.33 1.32 -0.66 2.64 -1 4 C-1.66 4 -2.32 4 -3 4 C-2.67 4.99 -2.34 5.98 -2 7 C-3.299375 6.8453125 -3.299375 6.8453125 -4.625 6.6875 C-8.42516949 7.03936755 -9.69540263 8.15190508 -12.42578125 10.703125 C-14.94796615 12.78095475 -18.01085359 13.72684505 -21 15 C-21.639375 15.639375 -22.27875 16.27875 -22.9375 16.9375 C-25.84961022 19.84961022 -29.2841233 21.30440578 -33 23 C-32.505 21.515 -32.505 21.515 -32 20 C-30.66666667 19.66666667 -29.33333333 19.33333333 -28 19 C-27.67 18.01 -27.34 17.02 -27 16 C-25.66692675 15.04292177 -24.32167896 14.09963088 -22.9296875 13.23046875 C-20.61913213 11.75713891 -18.41334017 10.16080579 -16.1875 8.5625 C-3.98962823 0 -3.98962823 0 0 0 Z " fill="#E1933F" transform="translate(278,295)"/>
<path d="M0 0 C1.32 0 2.64 0 4 0 C4 0.66 4 1.32 4 2 C5.98 2 7.96 2 10 2 C10.165 2.763125 10.33 3.52625 10.5 4.3125 C12.2380358 7.42648081 12.757169 7.48367796 16 8.5 C19.84722222 9.70833333 19.84722222 9.70833333 21.375 12.625 C21.58125 13.40875 21.7875 14.1925 22 15 C22.66 15.33 23.32 15.66 24 16 C24.33 16.99 24.66 17.98 25 19 C25.99 19 26.98 19 28 19 C28 20.65 28 22.3 28 24 C27.38125 23.360625 26.7625 22.72125 26.125 22.0625 C19.58080092 15.55516965 12.8241695 9.62151874 5.12890625 4.5078125 C3.1942587 3.13758506 1.61139468 1.73056535 0 0 Z " fill="#E19138" transform="translate(346,80)"/>
<path d="M0 0 C1.97329708 0.01507323 3.9466053 0.02875697 5.91992188 0.04101562 C10.71772629 0.07381405 15.51498837 0.12545087 20.3125 0.1875 C20.3125 0.5175 20.3125 0.8475 20.3125 1.1875 C18.41189819 1.27052368 18.41189819 1.27052368 16.47290039 1.35522461 C11.78941118 1.5610604 7.10622034 1.77310297 2.4230957 1.98706055 C0.39289875 2.0789357 -1.63737599 2.16910817 -3.66772461 2.25756836 C-6.57948391 2.38472252 -9.4909122 2.5179191 -12.40234375 2.65234375 C-13.3158812 2.69093002 -14.22941864 2.7295163 -15.17063904 2.76927185 C-19.25859414 2.56690755 -19.25859414 2.56690755 -22.6875 4.1875 C-24.87042774 4.42231693 -27.05953174 4.60113323 -29.25 4.75 C-30.44753906 4.83378906 -31.64507812 4.91757812 -32.87890625 5.00390625 C-33.80574219 5.06449219 -34.73257813 5.12507813 -35.6875 5.1875 C-25.25688055 -1.7662463 -11.97252774 -0.15952668 0 0 Z " fill="#DB8428" transform="translate(155.6875,24.8125)"/>
<path d="M0 0 C0.66 0.33 1.32 0.66 2 1 C-1.36873514 5.45862004 -3.83659448 7.64279313 -9 10 C-9.44730469 10.48726562 -9.89460938 10.97453125 -10.35546875 11.4765625 C-12.4845401 13.44886138 -14.40264695 13.92799462 -17.1875 14.6875 C-18.08855469 14.93886719 -18.98960938 15.19023438 -19.91796875 15.44921875 C-20.60503906 15.63097656 -21.29210937 15.81273437 -22 16 C-18.77049911 11.40766626 -15.07752211 8.73894385 -10.4375 5.75 C-9.76525391 5.30398437 -9.09300781 4.85796875 -8.40039062 4.3984375 C-5.57521296 2.54678183 -3.22745135 1.07581712 0 0 Z " fill="#DF8D32" transform="translate(96,39)"/>
<path d="M0 0 C1.64630328 0.14042877 3.29204179 0.28749329 4.9375 0.4375 C6.31228516 0.55931641 6.31228516 0.55931641 7.71484375 0.68359375 C10 1 10 1 11 2 C13.32817964 2.36760731 15.6618385 2.70241581 18 3 C18 3.66 18 4.32 18 5 C18.804375 4.979375 19.60875 4.95875 20.4375 4.9375 C23 5 23 5 24 6 C26.18292774 6.23481693 28.37203174 6.41363323 30.5625 6.5625 C31.76003906 6.64628906 32.95757812 6.73007812 34.19140625 6.81640625 C35.11824219 6.87699219 36.04507813 6.93757813 37 7 C37 7.66 37 8.32 37 9 C24.76422623 10.54738123 11.16591867 5.81209047 0 1 C0 0.67 0 0.34 0 0 Z " fill="#DA8E35" transform="translate(107,466)"/>
<path d="M0 0 C0.66 0 1.32 0 2 0 C1.85870713 2.41700987 1.71213513 4.83350429 1.5625 7.25 C1.52318359 7.93191406 1.48386719 8.61382812 1.44335938 9.31640625 C1.23333528 12.64448041 0.98065998 15.80255402 0 19 C-6.04801071 18.45018084 -11.30601106 17.09570426 -17 15 C-13.23331402 13.6194913 -10.55210827 14.40431841 -6.75 15.4375 C-5.13351563 15.86869141 -5.13351563 15.86869141 -3.484375 16.30859375 C-2.66453125 16.53675781 -1.8446875 16.76492188 -1 17 C-1 14.69 -1 12.38 -1 10 C-2.98 10 -4.96 10 -7 10 C-6.67 9.34 -6.34 8.68 -6 8 C-4.35 8 -2.7 8 -1 8 C-0.67 5.36 -0.34 2.72 0 0 Z " fill="#DF8D29" transform="translate(231,378)"/>
<path d="M0 0 C0.33 0.99 0.66 1.98 1 3 C0.01 3.33 -0.98 3.66 -2 4 C-2 6.64 -2 9.28 -2 12 C-2.928125 12.20625 -3.85625 12.4125 -4.8125 12.625 C-8.89893303 14.38777503 -9.20848452 16.02750914 -11 20 C-13.5625 22.875 -13.5625 22.875 -16 25 C-16.66 25 -17.32 25 -18 25 C-16.50079488 21.88626628 -14.91847864 18.87771795 -13 16 C-12.34 16 -11.68 16 -11 16 C-10.75378906 15.28328125 -10.50757813 14.5665625 -10.25390625 13.828125 C-8.85644325 10.67621469 -7.12817093 8.40584062 -4.9375 5.75 C-4.22464844 4.87859375 -3.51179688 4.0071875 -2.77734375 3.109375 C-1.88187356 2.04661917 -0.98267919 0.98267919 0 0 Z " fill="#DE9845" transform="translate(424,299)"/>
<path d="M0 0 C0 15.51 0 31.02 0 47 C-0.33 47 -0.66 47 -1 47 C-1 32.48 -1 17.96 -1 3 C-6.01632918 5.50816459 -8.37533897 7.05551594 -12 11 C-12.66 10.67 -13.32 10.34 -14 10 C-4.49315068 0 -4.49315068 0 0 0 Z " fill="#D47C1A" transform="translate(470,249)"/>
<path d="M0 0 C12.12558265 -0.43915591 22.48639148 -0.26994753 34 4 C34 4.33 34 4.66 34 5 C31.87465341 4.85930804 29.74972471 4.71229079 27.625 4.5625 C26.44164062 4.48128906 25.25828125 4.40007813 24.0390625 4.31640625 C21 4 21 4 19 3 C17.5534758 2.84932786 16.1012066 2.75138964 14.6484375 2.68359375 C13.37226563 2.62075195 13.37226563 2.62075195 12.0703125 2.55664062 C11.18085938 2.51732422 10.29140625 2.47800781 9.375 2.4375 C8.4778125 2.39431641 7.580625 2.35113281 6.65625 2.30664062 C4.43765717 2.20043139 2.2189512 2.09838806 0 2 C0 1.34 0 0.68 0 0 Z " fill="#D68E3F" transform="translate(346,25)"/>
<path d="M0 0 C0.33 0 0.66 0 1 0 C1.05807043 3.10408807 1.09361914 6.2080364 1.125 9.3125 C1.14175781 10.19357422 1.15851563 11.07464844 1.17578125 11.98242188 C1.18222656 12.82998047 1.18867188 13.67753906 1.1953125 14.55078125 C1.20578613 15.33106689 1.21625977 16.11135254 1.22705078 16.9152832 C1 19 1 19 -1 22 C-4.125 22.6875 -4.125 22.6875 -7 23 C-7.66 21.35 -8.32 19.7 -9 18 C-8.01 18.33 -7.02 18.66 -6 19 C-6 19.66 -6 20.32 -6 21 C-5.34 21 -4.68 21 -4 21 C-3.896875 19.948125 -3.79375 18.89625 -3.6875 17.8125 C-2.94805734 11.77734301 -1.43040204 5.90153295 0 0 Z " fill="#DE882A" transform="translate(221,352)"/>
<path d="M0 0 C1.3236422 3.97092659 0.72572951 5.189014 -1 9 C-4.27928546 13.45106098 -7.81817276 17.7792169 -13 20 C-13.66 19.67 -14.32 19.34 -15 19 C-14.5875 18.55011719 -14.175 18.10023438 -13.75 17.63671875 C-8.73632841 12.05229437 -4.33307866 6.12258387 0 0 Z " fill="#DF9239" transform="translate(405,324)"/>
<path d="M0 0 C0.33 0.66 0.66 1.32 1 2 C0.07421875 3.69921875 0.07421875 3.69921875 -1.3125 5.6875 C-3.77153381 9.42386526 -5.00451535 12.65606699 -6 17 C-6.66 17 -7.32 17 -8 17 C-8.66 21.62 -9.32 26.24 -10 31 C-10.66 31 -11.32 31 -12 31 C-12.33 31.66 -12.66 32.32 -13 33 C-13.38555229 27.12418316 -12.19976706 22.99268118 -9.875 17.625 C-9.40501587 16.50943726 -9.40501587 16.50943726 -8.92553711 15.37133789 C-6.52445247 9.83135107 -3.71761762 4.77979408 0 0 Z " fill="#E09E42" transform="translate(153,222)"/>
<path d="M0 0 C0 0.66 0 1.32 0 2 C-3.67452438 4.8394052 -5.26886581 6 -10 6 C-10.268125 6.61875 -10.53625 7.2375 -10.8125 7.875 C-12 10 -12 10 -15 12 C-17.26171875 12.1953125 -17.26171875 12.1953125 -19.6875 12.125 C-20.89986328 12.09792969 -20.89986328 12.09792969 -22.13671875 12.0703125 C-23.05904297 12.03550781 -23.05904297 12.03550781 -24 12 C-20.30542924 8.92441492 -16.16542886 6.97032572 -11.875 4.875 C-11.14667969 4.51535156 -10.41835938 4.15570313 -9.66796875 3.78515625 C-7.78025154 2.85351023 -5.89027614 1.92644303 -4 1 C-2 0 -2 0 0 0 Z " fill="#DB882E" transform="translate(314,418)"/>
<path d="M0 0 C-2.9547932 1.96986214 -5.32678737 2.8660308 -8.6875 3.9375 C-12.38398439 5.12933618 -16.0191697 6.37016788 -19.625 7.8125 C-20.73875 8.204375 -21.8525 8.59625 -23 9 C-23.66 8.67 -24.32 8.34 -25 8 C-24.01 7.67 -23.02 7.34 -22 7 C-22 6.01 -22 5.02 -22 4 C-21.01 3.67 -20.02 3.34 -19 3 C-18.34 2.34 -17.68 1.68 -17 1 C-17 1.66 -17 2.32 -17 3 C-16.03900391 2.67515625 -16.03900391 2.67515625 -15.05859375 2.34375 C-9.8261918 0.65940004 -5.4934405 -0.35826786 0 0 Z " fill="#DF8931" transform="translate(260,72)"/>
<path d="M0 0 C-0.66 0 -1.32 0 -2 0 C-2 0.66 -2 1.32 -2 2 C-4.64 2.33 -7.28 2.66 -10 3 C-10 3.66 -10 4.32 -10 5 C-16.61809577 7.46254726 -23.00439516 7.18935472 -30 7 C-30 6.67 -30 6.34 -30 6 C-28.7934375 5.74605469 -27.586875 5.49210937 -26.34375 5.23046875 C-24.72909815 4.88313085 -23.11451863 4.5354566 -21.5 4.1875 C-20.31277344 3.9390332 -20.31277344 3.9390332 -19.1015625 3.68554688 C-15.1311617 2.82312375 -11.42314457 1.83566848 -7.65625 0.30078125 C-4.03394682 -0.98792277 -3.38645113 -1.11123762 0 0 Z " fill="#E0933B" transform="translate(290,431)"/>
<path d="M0 0 C3.10625593 2.4048433 3.95421276 3.80703951 4.875 7.6875 C5.33771073 13.89939154 4.42664829 19.64833182 0.4375 24.5625 C-0.7690625 25.7690625 -0.7690625 25.7690625 -2 27 C-2.33 27 -2.66 27 -3 27 C-3 25.02 -3 23.04 -3 21 C-2.01 21.33 -1.02 21.66 0 22 C0 19.69 0 17.38 0 15 C0.66 14.67 1.32 14.34 2 14 C2 11.03 2 8.06 2 5 C1.34 4.67 0.68 4.34 0 4 C0 2.68 0 1.36 0 0 Z " fill="#E0983E" transform="translate(356,182)"/>
<path d="M0 0 C0.66 0.33 1.32 0.66 2 1 C0.84826645 3.46800047 -0.04783565 5.04783565 -2 7 C-2.99 7 -3.98 7 -5 7 C-5.0825 7.61875 -5.165 8.2375 -5.25 8.875 C-6 11 -6 11 -8.0625 12.25 C-8.701875 12.4975 -9.34125 12.745 -10 13 C-10 13.99 -10 14.98 -10 16 C-12.375 17.75 -12.375 17.75 -15 19 C-15.66 18.67 -16.32 18.34 -17 18 C-14.73005136 15.56167482 -12.45888681 13.12448546 -10.1875 10.6875 C-9.54490234 9.99720703 -8.90230469 9.30691406 -8.24023438 8.59570312 C-7.61826172 7.92861328 -6.99628906 7.26152344 -6.35546875 6.57421875 C-5.49924927 5.65515747 -5.49924927 5.65515747 -4.62573242 4.7175293 C-3.11021909 3.11644261 -1.56708191 1.55047707 0 0 Z " fill="#E09429" transform="translate(72,55)"/>
<path d="M0 0 C0 0.99 0 1.98 0 3 C-1.32 3 -2.64 3 -4 3 C-4.2475 3.78375 -4.495 4.5675 -4.75 5.375 C-6 8 -6 8 -7.75 9.25 C-10.47029831 10.1567661 -13.17181291 10.53825517 -16 11 C-17.68375165 11.62225605 -19.35767228 12.27544365 -21 13 C-17.39105752 9.06297183 -13.71861341 6.51459016 -9 4 C-7.72789609 3.2521571 -6.45702462 2.50221313 -5.1875 1.75 C-2 0 -2 0 0 0 Z " fill="#DF9135" transform="translate(213,172)"/>
<path d="M0 0 C0.66 0 1.32 0 2 0 C0.27447606 8.69776296 -1.8702316 17.09483276 -6 25 C-6.66 25.33 -7.32 25.66 -8 26 C-8 24.35 -8 22.7 -8 21 C-7.34 21 -6.68 21 -6 21 C-5.83081732 19.41693353 -5.66476064 17.83353281 -5.5 16.25 C-5.4071875 15.36828125 -5.314375 14.4865625 -5.21875 13.578125 C-4.94363687 10.76695165 -4.94363687 10.76695165 -5 7 C-3.68 7.33 -2.36 7.66 -1 8 C-0.67 5.36 -0.34 2.72 0 0 Z " fill="#E09635" transform="translate(465,379)"/>
<path d="M0 0 C0.33 1.32 0.66 2.64 1 4 C0.01 4.495 0.01 4.495 -1 5 C-1.0825 5.639375 -1.165 6.27875 -1.25 6.9375 C-1.4975 7.618125 -1.745 8.29875 -2 9 C-3.98723268 9.70381157 -5.98777953 10.3711811 -8 11 C-8.33 11.99 -8.66 12.98 -9 14 C-10.65 14.33 -12.3 14.66 -14 15 C-13.61328125 14.55269531 -13.2265625 14.10539063 -12.828125 13.64453125 C-10.45041043 10.8842636 -8.10333761 8.13373102 -5.875 5.25 C-4.07559847 3.09071816 -2.31708205 1.57230568 0 0 Z " fill="#DF8D34" transform="translate(174,198)"/>
<path d="M0 0 C7.26 0 14.52 0 22 0 C22 0.33 22 0.66 22 1 C21.30438965 1.08564209 20.6087793 1.17128418 19.89208984 1.25952148 C16.71956307 1.65086849 13.54728106 2.04416642 10.375 2.4375 C9.28058594 2.57220703 8.18617188 2.70691406 7.05859375 2.84570312 C5.99511719 2.97783203 4.93164062 3.10996094 3.8359375 3.24609375 C2.37486572 3.42676392 2.37486572 3.42676392 0.88427734 3.61108398 C-2.08943875 4.01205992 -5.04288465 4.49180573 -8 5 C-7.67 4.01 -7.34 3.02 -7 2 C-4.69 2 -2.38 2 0 2 C0 1.34 0 0.68 0 0 Z " fill="#E4A154" transform="translate(268,67)"/>
<path d="M0 0 C1 2 1 2 0.375 4.4375 C-1.29423777 7.54835221 -3.02117426 8.21270456 -6 10 C-7.34689915 12.57099402 -7.34689915 12.57099402 -8 15 C-8.66 15 -9.32 15 -10 15 C-10.33 16.32 -10.66 17.64 -11 19 C-11.99 19 -12.98 19 -14 19 C-12.56420625 15.87378898 -10.81985376 13.31999255 -8.6875 10.625 C-8.07132812 9.84511719 -7.45515625 9.06523437 -6.8203125 8.26171875 C-4.58004918 5.47821561 -2.30796831 2.72759891 0 0 Z " fill="#DE9241" transform="translate(443,274)"/>
<path d="M0 0 C4.29 0 8.58 0 13 0 C5.50817978 4.99454681 -3.2350332 5.45774488 -12 5 C-9.20209497 2.20209497 -6.82020154 2.5884929 -2.99609375 2.34375 C-2.33738281 2.2303125 -1.67867188 2.116875 -1 2 C-0.67 1.34 -0.34 0.68 0 0 Z " fill="#DD9137" transform="translate(301,348)"/>
<path d="M0 0 C1.32 0.33 2.64 0.66 4 1 C4 1.66 4 2.32 4 3 C5.04220703 3.38285156 5.04220703 3.38285156 6.10546875 3.7734375 C9.35317449 5.14965828 12.27982916 6.82539313 15.3125 8.625 C16.38113281 9.25664062 17.44976562 9.88828125 18.55078125 10.5390625 C19.76314453 11.26222656 19.76314453 11.26222656 21 12 C17.68604014 13.08784335 17.16419665 13.07262544 13.75 11.5625 C12.8425 11.046875 11.935 10.53125 11 10 C11 9.34 11 8.68 11 8 C9.865625 7.71125 8.73125 7.4225 7.5625 7.125 C6.386875 6.75375 5.21125 6.3825 4 6 C3.67 5.34 3.34 4.68 3 4 C2.01 4 1.02 4 0 4 C0 2.68 0 1.36 0 0 Z " fill="#E19E4B" transform="translate(141,410)"/>
<path d="M0 0 C8.57142857 1 8.57142857 1 12 2 C12 2.66 12 3.32 12 4 C12.66 4.33 13.32 4.66 14 5 C13.67 5.33 13.34 5.66 13 6 C13.99 6.66 14.98 7.32 16 8 C13 9 13 9 10.1171875 7.63671875 C9.04726562 6.99347656 7.97734375 6.35023438 6.875 5.6875 C5.79992187 5.05199219 4.72484375 4.41648437 3.6171875 3.76171875 C1 2 1 2 0 0 Z " fill="#E49135" transform="translate(199,383)"/>
<path d="M0 0 C8.51204152 0.97184726 15.68125619 3.49615765 23 8 C23.33 8.66 23.66 9.32 24 10 C19.40366442 9.56638344 17.15842303 9.29574577 14 6 C10.89160979 5.2730774 10.89160979 5.2730774 8 5 C8 4.34 8 3.68 8 3 C5.36 2.34 2.72 1.68 0 1 C0 0.67 0 0.34 0 0 Z " fill="#E0984A" transform="translate(312,154)"/>
<path d="M0 0 C2.81631641 2.49493496 4.40955981 5.26562818 6.1875 8.5625 C6.71730469 9.53316406 7.24710937 10.50382812 7.79296875 11.50390625 C9 14 9 14 9 16 C8.34 16 7.68 16 7 16 C7 15.01 7 14.02 7 13 C6.01 13 5.02 13 4 13 C2.3125 11.5 2.3125 11.5 1 10 C0.67 10.66 0.34 11.32 0 12 C-0.93423645 8.98968256 -1.04449911 8.13349732 0 5 C0.03874921 3.33378384 0.0450286 1.66605828 0 0 Z " fill="#E59744" transform="translate(451,84)"/>
<path d="M0 0 C9.77623457 7.54166667 9.77623457 7.54166667 12 13 C11.01 13.495 11.01 13.495 10 14 C10 13.34 10 12.68 10 12 C9.01 11.67 8.02 11.34 7 11 C7 10.34 7 9.68 7 9 C5.02 9.33 3.04 9.66 1 10 C1.33 8.02 1.66 6.04 2 4 C1.34 4 0.68 4 0 4 C0 2.68 0 1.36 0 0 Z " fill="#E08931" transform="translate(199,357)"/>
<path d="M0 0 C2.1640625 -0.29296875 2.1640625 -0.29296875 4.625 -0.1875 C5.44226563 -0.16042969 6.25953125 -0.13335937 7.1015625 -0.10546875 C8.04128906 -0.05326172 8.04128906 -0.05326172 9 0 C5.91845396 2.05436403 3.08596868 3.20114677 -0.375 4.5 C-5.07598344 6.26501433 -5.07598344 6.26501433 -9.7265625 8.15625 C-12 9 -12 9 -15 9 C-14.67 8.01 -14.34 7.02 -14 6 C-11.34765625 5.15625 -11.34765625 5.15625 -8.0625 4.5 C-3.12444584 3.70302327 -3.12444584 3.70302327 0 0 Z " fill="#E5A65A" transform="translate(321,224)"/>
<path d="M0 0 C0.75 1.6875 0.75 1.6875 1 4 C-0.8125 6.75 -0.8125 6.75 -3 9 C-3.66 9 -4.32 9 -5 9 C-5 9.66 -5 10.32 -5 11 C-5.99 11.495 -5.99 11.495 -7 12 C-7.33 12.99 -7.66 13.98 -8 15 C-10.4375 16.75 -10.4375 16.75 -13 18 C-13.66 17.67 -14.32 17.34 -15 17 C-13.625 15.5 -13.625 15.5 -12 14 C-11.34 14 -10.68 14 -10 14 C-9.773125 13.278125 -9.54625 12.55625 -9.3125 11.8125 C-7.74082213 8.44461885 -5.68042475 6.54967233 -3 4 C-1.97186389 2.68824014 -0.95915568 1.3630107 0 0 Z " fill="#DE9648" transform="translate(380,356)"/>
<path d="M0 0 C-3.33012706 2.22008471 -5.85513076 2.83079593 -9.75 3.6875 C-11.53664063 4.09548828 -11.53664063 4.09548828 -13.359375 4.51171875 C-17.17283087 5.02318011 -20.2366629 4.71889388 -24 4 C-23.67 3.34 -23.34 2.68 -23 2 C-20.43745494 1.51616282 -17.96089411 1.15617565 -15.375 0.875 C-14.32505859 0.74544922 -14.32505859 0.74544922 -13.25390625 0.61328125 C-8.80697695 0.09351029 -4.47594771 -0.08223526 0 0 Z " fill="#E09945" transform="translate(306,233)"/>
<path d="M0 0 C0.33 0 0.66 0 1 0 C1.20483028 7.99976044 1.13480153 15.26134446 -1 23 C-1.33 23 -1.66 23 -2 23 C-2.20483028 15.00023956 -2.13480153 7.73865554 0 0 Z " fill="#DF9139" transform="translate(469,355)"/>
<path d="M0 0 C2.00720923 0.28674418 4.0085944 0.61866701 6 1 C2.0299782 5.21814817 -2.30840284 8.61227103 -7 12 C-7 10.35 -7 8.7 -7 7 C-6.38125 6.938125 -5.7625 6.87625 -5.125 6.8125 C-2.73182415 6.17775641 -2.73182415 6.17775641 -1.8125 3.5 C-1.544375 2.675 -1.27625 1.85 -1 1 C-0.67 0.67 -0.34 0.34 0 0 Z " fill="#DF943C" transform="translate(188,106)"/>
<path d="M0 0 C0.33 0.33 0.66 0.66 1 1 C2.51928038 1.07179964 4.04167482 1.08392007 5.5625 1.0625 C6.38878906 1.05347656 7.21507812 1.04445313 8.06640625 1.03515625 C9.02353516 1.01775391 9.02353516 1.01775391 10 1 C10 1.99 10 2.98 10 4 C1.99305886 3.4017071 -6.00605711 2.7529365 -14 2 C-14 1.67 -14 1.34 -14 1 C-9.29645048 0.35123455 -4.7606583 -0.23222723 0 0 Z " fill="#EDAE5D" transform="translate(310,66)"/>
<path d="M0 0 C0.33 1.32 0.66 2.64 1 4 C0.01 4.66 -0.98 5.32 -2 6 C-2.72965366 8.56282742 -2.72965366 8.56282742 -3 11 C-3.804375 11.12375 -4.60875 11.2475 -5.4375 11.375 C-6.283125 11.58125 -7.12875 11.7875 -8 12 C-8.33 12.66 -8.66 13.32 -9 14 C-9.66 14 -10.32 14 -11 14 C-9.42219077 10.28954753 -7.09296752 7.70093616 -4.375 4.75 C-3.55773437 3.85796875 -2.74046875 2.9659375 -1.8984375 2.046875 C-1.27195312 1.37140625 -0.64546875 0.6959375 0 0 Z " fill="#DA872E" transform="translate(455,260)"/>
<path d="M0 0 C0 0.99 0 1.98 0 3 C-0.99 3.33 -1.98 3.66 -3 4 C-3 4.99 -3 5.98 -3 7 C-10.5 9.125 -10.5 9.125 -15 8 C-10.05 5.36 -5.1 2.72 0 0 Z " fill="#E0943F" transform="translate(346,261)"/>
<path d="M0 0 C0.66 0 1.32 0 2 0 C0.8905928 3.48670834 -0.26337666 6.77484237 -2 10 C-2.66 10 -3.32 10 -4 10 C-4 10.99 -4 11.98 -4 13 C-4.99 12.67 -5.98 12.34 -7 12 C-7.8125 10.0625 -7.8125 10.0625 -8 8 C-7.34 7.34 -6.68 6.68 -6 6 C-5.01 6 -4.02 6 -3 6 C-2.67 4.68 -2.34 3.36 -2 2 C-1.34 2 -0.68 2 0 2 C0 1.34 0 0.68 0 0 Z " fill="#DF8A26" transform="translate(193,218)"/>
<path d="M0 0 C1.98 0.66 3.96 1.32 6 2 C0.35475578 7.80205656 0.35475578 7.80205656 -3 10 C-3.66 10 -4.32 10 -5 10 C-5 8.68 -5 7.36 -5 6 C-3.68 6 -2.36 6 -1 6 C-0.67 4.02 -0.34 2.04 0 0 Z " fill="#E09541" transform="translate(353,320)"/>
<path d="M0 0 C-0.33 0.99 -0.66 1.98 -1 3 C-3.03125 3.87890625 -3.03125 3.87890625 -5.5 4.5625 C-7.91495405 5.20384717 -7.91495405 5.20384717 -10 6 C-10.33 6.66 -10.66 7.32 -11 8 C-14.81995829 9.61287128 -17.05432816 10.20681069 -21 9 C-3.26213592 0 -3.26213592 0 0 0 Z " fill="#E19B56" transform="translate(316,277)"/>
<path d="M0 0 C0.99 0 1.98 0 3 0 C6.12892533 6.93805182 6.66569599 13.43781278 7 21 C5.15381703 17.62223025 4.04736804 14.17986666 2.9375 10.5 C2.42509766 8.81390625 2.42509766 8.81390625 1.90234375 7.09375 C1.21472124 4.73618709 0.56782272 2.38836771 0 0 Z " fill="#E1A144" transform="translate(385,123)"/>
<path d="M0 0 C1.32 0.33 2.64 0.66 4 1 C-1 4.33333333 -6 7.66666667 -11 11 C-11 9.68 -11 8.36 -11 7 C-10.01 7 -9.02 7 -8 7 C-8 6.34 -8 5.68 -8 5 C-7.01 4.67 -6.02 4.34 -5 4 C-4.67 3.34 -4.34 2.68 -4 2 C-2.68 2 -1.36 2 0 2 C0 1.34 0 0.68 0 0 Z " fill="#E19D4E" transform="translate(208,94)"/>
<path d="M0 0 C0 3 0 3 -1.25 4.46484375 C-5.58677104 8.11431402 -9.84005163 10.64633934 -15 13 C-14.67 12.01 -14.34 11.02 -14 10 C-12.66666667 9.66666667 -11.33333333 9.33333333 -10 9 C-9.67 8.01 -9.34 7.02 -9 6 C-7.04690112 4.59886384 -5.04291182 3.26660533 -3 2 C-2.01 1.34 -1.02 0.68 0 0 Z " fill="#E1A45D" transform="translate(260,305)"/>
<path d="M0 0 C0.33 0.66 0.66 1.32 1 2 C0.08443766 3.62766637 -0.83984309 5.25107416 -1.80859375 6.84765625 C-3.95049325 10.71712059 -5.43775891 14.87003285 -7 19 C-7.33 19 -7.66 19 -8 19 C-8 17.35 -8 15.7 -8 14 C-7.34 14 -6.68 14 -6 14 C-5.90203125 13.32453125 -5.8040625 12.6490625 -5.703125 11.953125 C-4.21792619 3.09314587 -4.21792619 3.09314587 0 0 Z " fill="#E29E4C" transform="translate(119,198)"/>
<path d="M0 0 C1.32 0.33 2.64 0.66 4 1 C1.36 5.62 -1.28 10.24 -4 15 C-5.03864166 11.88407501 -5.09036928 10.9737344 -4 8 C-3.34 7.67 -2.68 7.34 -2 7 C-1.26924352 4.6859378 -0.59861742 2.35171131 0 0 Z " fill="#DE9040" transform="translate(125,182)"/>
<path d="M0 0 C2.64404244 3.15309659 3.9568165 6.16847356 5.25 10.0625 C5.60578125 11.10535156 5.9615625 12.14820312 6.328125 13.22265625 C7 16 7 16 6 19 C2.35920537 12.56479472 0.35865323 7.41216681 0 0 Z " fill="#E0964A" transform="translate(460,102)"/>
<path d="M0 0 C0.43570313 0.37511719 0.87140625 0.75023437 1.3203125 1.13671875 C5.18607599 4.45859777 9.07657648 7.74642927 13 11 C12.34 11.66 11.68 12.32 11 13 C10.34 12.01 9.68 11.02 9 10 C8.01 9.67 7.02 9.34 6 9 C5 8 4 7 3 6 C2.01 5.67 1.02 5.34 0 5 C0 3.35 0 1.7 0 0 Z " fill="#DB8D39" transform="translate(128,398)"/>
<path d="M0 0 C2.0625 0.4375 2.0625 0.4375 4 1 C-1.46037442 4.44240996 -6.77274933 6.34608232 -13 8 C-13 7.01 -13 6.02 -13 5 C-12.14535156 4.72285156 -11.29070312 4.44570313 -10.41015625 4.16015625 C-9.30542969 3.79792969 -8.20070313 3.43570312 -7.0625 3.0625 C-5.96035156 2.70285156 -4.85820312 2.34320313 -3.72265625 1.97265625 C-1.11876525 1.26143332 -1.11876525 1.26143332 0 0 Z " fill="#E19148" transform="translate(327,340)"/>
<path d="M0 0 C1.875 0.5625 1.875 0.5625 4 2 C5.86240027 6.90105335 6.45488193 11.8213783 7 17 C4.42033404 14.42033404 3.66390156 11.90692108 2.375 8.5 C1.92898437 7.3346875 1.48296875 6.169375 1.0234375 4.96875 C0 2 0 2 0 0 Z " fill="#DD9746" transform="translate(35,387)"/>
<path d="M0 0 C5.60461531 0.42089996 10.72086547 0.91613111 16 3 C16.33 2.34 16.66 1.68 17 1 C17 2.32 17 3.64 17 5 C10.95198929 4.45018084 5.69398894 3.09570426 0 1 C0 0.67 0 0.34 0 0 Z " fill="#DE983F" transform="translate(214,392)"/>
<path d="M0 0 C1.68900014 3.10629156 2.70626667 6.15205051 3.625 9.5625 C3.88539062 10.51253906 4.14578125 11.46257812 4.4140625 12.44140625 C5 15 5 15 5 18 C4.34 18 3.68 18 3 18 C0.5206176 11.75726932 -0.31985731 6.71700347 0 0 Z " fill="#E19849" transform="translate(95,332)"/>
<path d="M0 0 C0.99 0 1.98 0 3 0 C1.61735163 2.86867231 0.07851447 5.56024032 -1.625 8.25 C-2.07101563 8.95640625 -2.51703125 9.6628125 -2.9765625 10.390625 C-3.48316406 11.18726563 -3.48316406 11.18726563 -4 12 C-5.11196276 8.66411172 -5.09809194 7.29427581 -4 4 C-1.9375 2.6875 -1.9375 2.6875 0 2 C0 1.34 0 0.68 0 0 Z " fill="#DE9944" transform="translate(135,167)"/>
<path d="M0 0 C2.97 0.33 5.94 0.66 9 1 C8.01 1.66 7.02 2.32 6 3 C4.989375 3.70125 3.97875 4.4025 2.9375 5.125 C0 7 0 7 -2 7 C-1.34 4.69 -0.68 2.38 0 0 Z " fill="#E18F3A" transform="translate(221,83)"/>
<path d="M0 0 C0.33 0.66 0.66 1.32 1 2 C-0.3125 4.625 -0.3125 4.625 -2 7 C-2.66 7 -3.32 7 -4 7 C-3.67 8.32 -3.34 9.64 -3 11 C-4.32 11.33 -5.64 11.66 -7 12 C-7 12.66 -7 13.32 -7 14 C-7.66 13.67 -8.32 13.34 -9 13 C-6.23793154 8.43805907 -3.44868587 4.08733141 0 0 Z " fill="#DD964A" transform="translate(236,326)"/>
<path d="M0 0 C0 0.99 0 1.98 0 3 C-3.98188718 4.71767682 -7.96479403 6.41037341 -12 8 C-12.66 7.34 -13.32 6.68 -14 6 C-12.04414675 4.99515796 -10.08523763 3.99626195 -8.125 3 C-6.48917969 2.1646875 -6.48917969 2.1646875 -4.8203125 1.3125 C-2 0 -2 0 0 0 Z " fill="#DD9946" transform="translate(330,270)"/>
<path d="M0 0 C-0.99 0.33 -1.98 0.66 -3 1 C-3.33 1.66 -3.66 2.32 -4 3 C-4.33 3.66 -4.66 4.32 -5 5 C-5.99 5.33 -6.98 5.66 -8 6 C-9.21869929 8.50447516 -9.21869929 8.50447516 -10 11 C-11 9 -11 9 -10.75 6.9375 C-10.5025 6.298125 -10.255 5.65875 -10 5 C-9.01 4.67 -8.02 4.34 -7 4 C-7 2.68 -7 1.36 -7 0 C-3.98968256 -0.93423645 -3.13349732 -1.04449911 0 0 Z " fill="#E3A458" transform="translate(208,204)"/>
<path d="M0 0 C2.31 0 4.62 0 7 0 C7 0.66 7 1.32 7 2 C7.825 2.495 8.65 2.99 9.5 3.5 C10.325 3.995 11.15 4.49 12 5 C12 5.66 12 6.32 12 7 C7.69235185 5.43358249 3.93828536 3.31663844 0 1 C0 0.67 0 0.34 0 0 Z " fill="#DE9242" transform="translate(90,457)"/>
<path d="M0 0 C0.66 0 1.32 0 2 0 C1.36934243 3.21852831 0.21979305 5.50801069 -1.5625 8.25 C-2.01753906 8.95640625 -2.47257812 9.6628125 -2.94140625 10.390625 C-3.29074219 10.92171875 -3.64007813 11.4528125 -4 12 C-5.27351308 9.45297384 -4.80191925 8.5717055 -4.0625 5.875 C-3.86785156 5.15054687 -3.67320312 4.42609375 -3.47265625 3.6796875 C-3.31667969 3.12539063 -3.16070312 2.57109375 -3 2 C-2.01 2 -1.02 2 0 2 C0 1.34 0 0.68 0 0 Z " fill="#DE8D37" transform="translate(453,409)"/>
<path d="M0 0 C1.65 0 3.3 0 5 0 C2.6875 2.5 2.6875 2.5 0 5 C-0.99 5 -1.98 5 -3 5 C-3 5.66 -3 6.32 -3 7 C-5.5 8.625 -5.5 8.625 -8 10 C-8.33 9.34 -8.66 8.68 -9 8 C-8.67 7.34 -8.34 6.68 -8 6 C-6.68 6 -5.36 6 -4 6 C-4 5.01 -4 4.02 -4 3 C-2.68 3 -1.36 3 0 3 C0 2.01 0 1.02 0 0 Z " fill="#E19B49" transform="translate(463,220)"/>
<path d="M0 0 C1.2684375 0.4640625 1.2684375 0.4640625 2.5625 0.9375 C2.5625 1.2675 2.5625 1.5975 2.5625 1.9375 C0.43686897 1.82373383 -1.6880261 1.69614369 -3.8125 1.5625 C-4.99585938 1.49289063 -6.17921875 1.42328125 -7.3984375 1.3515625 C-10.4375 0.9375 -10.4375 0.9375 -12.4375 -1.0625 C-8.51832574 -3.02208713 -4.00036639 -1.23647688 0 0 Z " fill="#E2913D" transform="translate(377.4375,28.0625)"/>
<path d="M0 0 C0 0.99 0 1.98 0 3 C-1.051875 3.391875 -2.10375 3.78375 -3.1875 4.1875 C-6.91658932 5.76402557 -9.29663487 7.96895425 -12 11 C-12.66 10.67 -13.32 10.34 -14 10 C-4.49315068 0 -4.49315068 0 0 0 Z " fill="#D58937" transform="translate(470,249)"/>
<path d="M0 0 C1.13199353 0.9080162 2.25532363 1.82683826 3.375 2.75 C4.00148438 3.26046875 4.62796875 3.7709375 5.2734375 4.296875 C7.08312318 6.08199481 8.00117455 7.67949644 9 10 C7.35 10 5.7 10 4 10 C4 8.35 4 6.7 4 5 C3.01 5 2.02 5 1 5 C0.67 3.35 0.34 1.7 0 0 Z " fill="#DF994A" transform="translate(347,172)"/>
<path d="M0 0 C10.15317287 0.35010941 10.15317287 0.35010941 13.6875 3.0625 C14.120625 3.701875 14.55375 4.34125 15 5 C9.7415998 4.32584613 4.97361654 2.75734451 0 1 C0 0.67 0 0.34 0 0 Z " fill="#E3994E" transform="translate(320,70)"/>
<path d="M0 0 C1 2 1 2 0.75 4 C0 6 0 6 -3 8 C-3.33 8.99 -3.66 9.98 -4 11 C-6.0625 11.6875 -6.0625 11.6875 -8 12 C-7.23570339 10.55901389 -6.46327445 9.12233946 -5.6875 7.6875 C-5.25824219 6.88699219 -4.82898438 6.08648437 -4.38671875 5.26171875 C-3.09940446 3.16212728 -1.81593292 1.64552279 0 0 Z " fill="#DF9940" transform="translate(383,223)"/>
<path d="M0 0 C1.98 0 3.96 0 6 0 C3.20803989 3.28465896 -0.23196817 5.01321958 -4 7 C-4.66 7 -5.32 7 -6 7 C-6 6.34 -6 5.68 -6 5 C-4.34467377 3.98133771 -2.67739862 2.98189187 -1 2 C-0.67 1.34 -0.34 0.68 0 0 Z " fill="#E4A357" transform="translate(336,217)"/>
<path d="M0 0 C0.99 0.33 1.98 0.66 3 1 C1.02 3.31 -0.96 5.62 -3 8 C-3.66 6.68 -4.32 5.36 -5 4 C-2.6875 1.9375 -2.6875 1.9375 0 0 Z " fill="#DE872A" transform="translate(439,429)"/>
<path d="M0 0 C1.41791408 0.45445964 2.83428046 0.91374944 4.25 1.375 C5.43335938 1.75785156 5.43335938 1.75785156 6.640625 2.1484375 C8.86627958 2.95173667 10.90931672 3.89711662 13 5 C10.02812609 6.48593696 7.95731941 5.28156453 4.875 4.375 C2.91960301 3.7843899 2.91960301 3.7843899 1 5 C0.67 3.35 0.34 1.7 0 0 Z " fill="#E39848" transform="translate(162,423)"/>
<path d="M0 0 C4.54805635 -0.17835515 7.8794254 0.00214565 12 2 C8.30581799 3.231394 5.7943739 2.64432764 2 2 C1.01 4.31 0.02 6.62 -1 9 C-2.0326802 6.21176345 -2.04509293 5.1322726 -1.0625 2.25 C-0.711875 1.5075 -0.36125 0.765 0 0 Z " fill="#DF994D" transform="translate(240,349)"/>
<path d="M0 0 C0.33 0.99 0.66 1.98 1 3 C0.01 3.33 -0.98 3.66 -2 4 C-2 6.64 -2 9.28 -2 12 C-2.99 11.67 -3.98 11.34 -5 11 C-4.50769231 4.6 -4.50769231 4.6 -1.9375 1.5625 C-0.9784375 0.7890625 -0.9784375 0.7890625 0 0 Z " fill="#DB8825" transform="translate(424,299)"/>
<path d="M0 0 C1.98 0 3.96 0 6 0 C2.98552165 2.57075841 0.64020229 3.52207066 -3.25 4.1875 C-4.58804687 4.42533203 -4.58804687 4.42533203 -5.953125 4.66796875 C-6.96632813 4.83232422 -6.96632813 4.83232422 -8 5 C-8 4.34 -8 3.68 -8 3 C-5.29120665 1.64560332 -2.99066732 1.93498549 0 2 C0 1.34 0 0.68 0 0 Z " fill="#E19B52" transform="translate(384,467)"/>
<path d="M0 0 C-0.66 0 -1.32 0 -2 0 C-2 0.66 -2 1.32 -2 2 C-10.42857143 4.28571429 -10.42857143 4.28571429 -15 4 C-12.60939149 2.40626099 -10.69171821 1.34702924 -8.0625 0.3125 C-7.39347656 0.04050781 -6.72445313 -0.23148437 -6.03515625 -0.51171875 C-3.67169662 -1.0787676 -2.2807201 -0.76024003 0 0 Z " fill="#DB9A4B" transform="translate(290,431)"/>
<path d="M0 0 C1.90389849 2.85584773 2.69462177 4.9311762 3.625 8.1875 C4.01558594 9.53908203 4.01558594 9.53908203 4.4140625 10.91796875 C4.60742188 11.60503906 4.80078125 12.29210937 5 13 C3.68 12.67 2.36 12.34 1 12 C0.67 8.04 0.34 4.08 0 0 Z " fill="#DC9647" transform="translate(188,334)"/>
<path d="M0 0 C0.66 0 1.32 0 2 0 C1.03644647 9.41002278 1.03644647 9.41002278 0 14 C-0.33 14 -0.66 14 -1 14 C-1.02685938 11.85423363 -1.04633088 9.70837355 -1.0625 7.5625 C-1.07410156 6.36753906 -1.08570312 5.17257812 -1.09765625 3.94140625 C-1 1 -1 1 0 0 Z " fill="#E19546" transform="translate(96,259)"/>
<path d="M0 0 C0.99 0.33 1.98 0.66 3 1 C1.85760183 2.33627775 0.71098945 3.66895388 -0.4375 5 C-1.07558594 5.7425 -1.71367187 6.485 -2.37109375 7.25 C-3.17740234 8.11625 -3.17740234 8.11625 -4 9 C-4.33 9 -4.66 9 -5 9 C-5.125 4.25 -5.125 4.25 -4 2 C-2.68 2 -1.36 2 0 2 C0 1.34 0 0.68 0 0 Z " fill="#E1913C" transform="translate(423,257)"/>
<path d="M0 0 C3.60513403 2.06007659 6.80331012 4.3513141 10 7 C9.67 7.66 9.34 8.32 9 9 C8.34 9 7.68 9 7 9 C6.62875 8.0409375 6.62875 8.0409375 6.25 7.0625 C5.18437567 4.81258459 5.18437567 4.81258459 2.875 4.25 C2.25625 4.1675 1.6375 4.085 1 4 C0.67 2.68 0.34 1.36 0 0 Z " fill="#E4A55D" transform="translate(420,50)"/>
<path d="M0 0 C-0.33 0.99 -0.66 1.98 -1 3 C-7.435 3.495 -7.435 3.495 -14 4 C-9.52281208 1.01520806 -5.36175907 0 0 0 Z " fill="#E4994E" transform="translate(134,26)"/>
<path d="M0 0 C1.65 0 3.3 0 5 0 C2.66531825 3.50202263 0.79831687 4.33823637 -3 6 C-3.66 6 -4.32 6 -5 6 C-4.67 4.68 -4.34 3.36 -4 2 C-2.68 2 -1.36 2 0 2 C0 1.34 0 0.68 0 0 Z " fill="#E29E4E" transform="translate(405,457)"/>
<path d="M0 0 C0 0.66 0 1.32 0 2 C-3.93281242 5.0900669 -7.02125936 6.52583422 -12 7 C-8.8380314 3.47318887 -4.98182478 0 0 0 Z " fill="#DC9647" transform="translate(314,418)"/>
<path d="M0 0 C3.63094642 2.64960955 5.89851796 5.01824456 8 9 C5.6875 8.875 5.6875 8.875 3 8 C0 3.13793103 0 3.13793103 0 0 Z " fill="#DF9343" transform="translate(120,389)"/>
<path d="M0 0 C2.40072955 2.88087546 4.47291037 5.56404834 6 9 C4.02 9 2.04 9 0 9 C0 6.03 0 3.06 0 0 Z " fill="#E09643" transform="translate(114,380)"/>
<path d="M0 0 C-3.19990508 2.74277578 -6.00499382 4.6302836 -10 6 C-10 4.68 -10 3.36 -10 2 C-6.49223216 0.39644899 -3.85645121 -0.22036864 0 0 Z " fill="#E19C4F" transform="translate(342,334)"/>
<path d="M0 0 C-2.64 1.98 -5.28 3.96 -8 6 C-9.24546405 3.50907189 -8.7767578 2.58919267 -8 0 C-4.71303767 -0.79953138 -3.28976808 -1.09658936 0 0 Z " fill="#DA8B33" transform="translate(369,315)"/>
<path d="M0 0 C1 2 1 2 0.375 4.5 C-1 7 -1 7 -3.625 8.3125 C-4.40875 8.539375 -5.1925 8.76625 -6 9 C-4.47291037 5.56404834 -2.40072955 2.88087546 0 0 Z " fill="#DB832A" transform="translate(443,274)"/>
<path d="M0 0 C0.33 0.66 0.66 1.32 1 2 C-1.10515339 5.72450216 -2.24267224 7.6795921 -6.25 9.375 C-7.61125 9.684375 -7.61125 9.684375 -9 10 C-7.38405168 7.95880212 -5.7143618 5.95927063 -4 4 C-3.34 4 -2.68 4 -2 4 C-1.34 2.68 -0.68 1.36 0 0 Z " fill="#E2A157" transform="translate(367,244)"/>
<path d="M0 0 C1.48838509 4.46515528 -0.12165998 7.80403076 -2 12 C-4.1875 14.5625 -4.1875 14.5625 -6 16 C-4.25192871 10.53262809 -2.34205919 5.24175152 0 0 Z " fill="#DDA865" transform="translate(388,208)"/>
<path d="M0 0 C0.33 0.66 0.66 1.32 1 2 C0.22265625 3.9453125 0.22265625 3.9453125 -0.9375 6.125 C-1.31777344 6.84945312 -1.69804688 7.57390625 -2.08984375 8.3203125 C-2.54037109 9.15175781 -2.54037109 9.15175781 -3 10 C-3.66 10 -4.32 10 -5 10 C-5 10.99 -5 11.98 -5 13 C-5.66 13 -6.32 13 -7 13 C-5.35821735 8.22390502 -2.73453298 4.20617096 0 0 Z " fill="#E2A861" transform="translate(53,76)"/>
<path d="M0 0 C2.96404505 2.80804268 5.44499019 5.18315774 7 9 C5.02 8.34 3.04 7.68 1 7 C0.67 4.69 0.34 2.38 0 0 Z " fill="#E4A255" transform="translate(440,69)"/>
<path d="M0 0 C4.30764815 1.56641751 8.06171464 3.68336156 12 6 C10 7 10 7 7.87109375 6.328125 C7.06800781 5.97234375 6.26492188 5.6165625 5.4375 5.25 C4.22900391 4.73179688 4.22900391 4.73179688 2.99609375 4.203125 C1 3 1 3 0 0 Z " fill="#E5A764" transform="translate(399,37)"/>
<path d="M0 0 C2.64 0.33 5.28 0.66 8 1 C3.375 5 3.375 5 0 5 C0 3.35 0 1.7 0 0 Z " fill="#E08928" transform="translate(409,452)"/>
<path d="M0 0 C2.97851562 0.390625 2.97851562 0.390625 5.95703125 0.78125 C8.15471706 1.053233 8.15471706 1.053233 11 1 C10.67 2.32 10.34 3.64 10 5 C2.42857143 3.14285714 2.42857143 3.14285714 0 0 Z " fill="#E08A2D" transform="translate(199,383)"/>
<path d="M0 0 C-1 3 -1 3 -4.3125 4.75 C-7.93653994 5.97848812 -8.6258971 6.10235591 -12 5 C-10.37750059 4.16180842 -8.75191503 3.3295884 -7.125 2.5 C-6.22007812 2.0359375 -5.31515625 1.571875 -4.3828125 1.09375 C-2 0 -2 0 0 0 Z " fill="#DB9345" transform="translate(295,287)"/>
<path d="M0 0 C1 3 1 3 0.375 5.125 C-1 7 -1 7 -3.625 7.75 C-4.800625 7.87375 -4.800625 7.87375 -6 8 C-4.02 5.36 -2.04 2.72 0 0 Z " fill="#E09344" transform="translate(374,236)"/>
<path d="M0 0 C5.34844008 0.53484401 9.35796103 2.46690767 14 5 C10.33529384 6.22156872 9.36762312 5.62833432 5.875 4.1875 C4.98554688 3.83042969 4.09609375 3.47335938 3.1796875 3.10546875 C1 2 1 2 0 0 Z " fill="#E19C5A" transform="translate(230,232)"/>
<path d="M0 0 C0 1.32 0 2.64 0 4 C-3.3 4.33 -6.6 4.66 -10 5 C-3.33333333 0 -3.33333333 0 0 0 Z " fill="#E09340" transform="translate(223,167)"/>
<path d="M0 0 C1.32 0 2.64 0 4 0 C4 0.66 4 1.32 4 2 C5.98 2 7.96 2 10 2 C10 2.99 10 3.98 10 5 C5.2482602 4.56802365 3.07999946 3.67230705 0 0 Z " fill="#DE8B39" transform="translate(346,80)"/>
<path d="M0 0 C0.33 0.66 0.66 1.32 1 2 C-0.98 4.97 -0.98 4.97 -3 8 C-4.32 7.67 -5.64 7.34 -7 7 C-4.78071806 4.09197539 -3.07030857 2.04687238 0 0 Z " fill="#DE8E3B" transform="translate(244,318)"/>
<path d="M0 0 C2.64 0 5.28 0 8 0 C6.35 1.98 4.7 3.96 3 6 C0 2.25 0 2.25 0 0 Z " fill="#E08F34" transform="translate(386,290)"/>
<path d="M0 0 C1.98 0.66 3.96 1.32 6 2 C4.35830472 4.02054804 2.69088222 6.02043058 1 8 C0.67 8 0.34 8 0 8 C0 5.36 0 2.72 0 0 Z " fill="#E3913C" transform="translate(402,274)"/>
<path d="M0 0 C1.12758089 3.38274266 0.81750262 4.76778223 0.0625 8.1875 C-0.13214844 9.08855469 -0.32679687 9.98960937 -0.52734375 10.91796875 C-0.68332031 11.60503906 -0.83929688 12.29210937 -1 13 C-1.33 13 -1.66 13 -2 13 C-2.33 10.03 -2.66 7.06 -3 4 C-2.34 4 -1.68 4 -1 4 C-0.67 2.68 -0.34 1.36 0 0 Z " fill="#DC9444" transform="translate(100,246)"/>
<path d="M0 0 C1.32 0.33 2.64 0.66 4 1 C4 1.66 4 2.32 4 3 C5.32 3.66 6.64 4.32 8 5 C7.67 5.66 7.34 6.32 7 7 C6.01 6.67 5.02 6.34 4 6 C3.67 5.34 3.34 4.68 3 4 C2.01 4 1.02 4 0 4 C0 2.68 0 1.36 0 0 Z " fill="#DE9244" transform="translate(141,410)"/>
<path d="M0 0 C0.66 0.33 1.32 0.66 2 1 C0.4375 3.4375 0.4375 3.4375 -2 6 C-5.75 6.8125 -5.75 6.8125 -9 7 C-6.03716687 4.61327331 -3.05729491 2.2646629 0 0 Z " fill="#DE9F59" transform="translate(356,254)"/>
<path d="M0 0 C1.32 0.33 2.64 0.66 4 1 C4 1.66 4 2.32 4 3 C4.66 3 5.32 3 6 3 C6.33 4.65 6.66 6.3 7 8 C1.125 3.375 1.125 3.375 0 0 Z " fill="#E19747" transform="translate(59,430)"/>
<path d="M0 0 C0.66 0.33 1.32 0.66 2 1 C1.67 1.66 1.34 2.32 1 3 C0.01 3 -0.98 3 -2 3 C-2.66 4.65 -3.32 6.3 -4 8 C-5.32 7.67 -6.64 7.34 -8 7 C-5.36 4.69 -2.72 2.38 0 0 Z " fill="#DB9548" transform="translate(343,395)"/>
<path d="M0 0 C0.66 0.99 1.32 1.98 2 3 C1.11644276 6.8555225 0.08943092 9.47228379 -3 12 C-2.67 9.69 -2.34 7.38 -2 5 C-1.34 5 -0.68 5 0 5 C0 3.35 0 1.7 0 0 Z " fill="#E29445" transform="translate(193,285)"/>
<path d="M0 0 C1 2 1 2 0.44140625 4.1640625 C0.15136719 4.97617188 -0.13867188 5.78828125 -0.4375 6.625 C-0.72496094 7.44226563 -1.01242188 8.25953125 -1.30859375 9.1015625 C-1.53675781 9.72804687 -1.76492187 10.35453125 -2 11 C-2.33 11 -2.66 11 -3 11 C-3.36923077 3.49230769 -3.36923077 3.49230769 -1.5 1 C-1.005 0.67 -0.51 0.34 0 0 Z " fill="#DF9543" transform="translate(110,217)"/>
<path d="M0 0 C-1.5625 1.5625 -1.5625 1.5625 -4 3 C-7.75 2.6875 -7.75 2.6875 -11 2 C-7.374967 -1.625033 -4.81746234 -1.01907857 0 0 Z " fill="#E29633" transform="translate(239,163)"/>
<path d="M0 0 C0.33 0.66 0.66 1.32 1 2 C1.66 2.33 2.32 2.66 3 3 C1.68 5.31 0.36 7.62 -1 10 C-1.33 10 -1.66 10 -2 10 C-1.125 2.25 -1.125 2.25 0 0 Z " fill="#DF9946" transform="translate(37,106)"/>
<path d="M0 0 C0.556875 0.28875 1.11375 0.5775 1.6875 0.875 C4.01604463 2.07338209 4.01604463 2.07338209 6.6875 2.875 C9 4 9 4 9.8125 6.125 C9.874375 6.74375 9.93625 7.3625 10 8 C6.05205855 6.32971708 3.18203882 3.8204435 0 1 C0 0.67 0 0.34 0 0 Z " fill="#E3AF64" transform="translate(354,85)"/>
<path d="M0 0 C0.66 0.33 1.32 0.66 2 1 C0.95125002 3.62187494 0.35068687 4.79371361 -2.125 6.25 C-2.74375 6.4975 -3.3625 6.745 -4 7 C-3.43628586 3.73045798 -2.50037734 2.17424117 0 0 Z " fill="#E09A2F" transform="translate(72,55)"/>
<path d="M0 0 C0.66 0.33 1.32 0.66 2 1 C-0.3500189 3.72107452 -2.55674975 4.96702492 -6 6 C-6.99 5.67 -7.98 5.34 -9 5 C-7.54735962 4.1361871 -6.0876837 3.28419546 -4.625 2.4375 C-3.40683594 1.72400391 -3.40683594 1.72400391 -2.1640625 0.99609375 C-1.44992188 0.66738281 -0.73578125 0.33867188 0 0 Z " fill="#E09B4C" transform="translate(96,39)"/>
<path d="M0 0 C2.62386487 3.06117568 3 3.73173127 3 8 C2.34 8 1.68 8 1 8 C1 7.34 1 6.68 1 6 C0.01 6 -0.98 6 -2 6 C-2 5.34 -2 4.68 -2 4 C-1.34 4 -0.68 4 0 4 C0 2.68 0 1.36 0 0 Z " fill="#E19B49" transform="translate(102,357)"/>
<path d="M0 0 C1.32 0.66 2.64 1.32 4 2 C1.03 4.475 1.03 4.475 -2 7 C-1.125 2.25 -1.125 2.25 0 0 Z " fill="#E09A46" transform="translate(381,298)"/>
<path d="M0 0 C0.66 0.66 1.32 1.32 2 2 C1.19185349 3.33597652 0.37836819 4.668725 -0.4375 6 C-0.88996094 6.7425 -1.34242188 7.485 -1.80859375 8.25 C-2.20175781 8.8275 -2.59492188 9.405 -3 10 C-3.33 10 -3.66 10 -4 10 C-4 8.02 -4 6.04 -4 4 C-3.01 4 -2.02 4 -1 4 C-0.67 2.68 -0.34 1.36 0 0 Z " fill="#E0A45E" transform="translate(203,272)"/>
<path d="M0 0 C0.33 1.32 0.66 2.64 1 4 C-1.31 5.32 -3.62 6.64 -6 8 C-4.55746343 4.63408134 -2.66735273 2.48952921 0 0 Z " fill="#DA8F39" transform="translate(455,260)"/>
<path d="M0 0 C0.66 0 1.32 0 2 0 C2.33 0.99 2.66 1.98 3 3 C1.02 4.32 -0.96 5.64 -3 7 C-3.66 6.67 -4.32 6.34 -5 6 C-4.67 5.01 -4.34 4.02 -4 3 C-2.68 3 -1.36 3 0 3 C0 2.01 0 1.02 0 0 Z " fill="#E38F42" transform="translate(213,196)"/>
<path d="M0 0 C1.17539996 0.92652701 2.34010577 1.86663387 3.5 2.8125 C4.1496875 3.33457031 4.799375 3.85664062 5.46875 4.39453125 C7 6 7 6 7 9 C5.8225266 8.26708288 4.65823146 7.51296199 3.5 6.75 C2.52546875 6.12351562 2.52546875 6.12351562 1.53125 5.484375 C1.0259375 4.99453125 0.520625 4.5046875 0 4 C0 2.68 0 1.36 0 0 Z " fill="#E7B374" transform="translate(432,60)"/>
<path d="M0 0 C0.66 0.33 1.32 0.66 2 1 C1.67 1.66 1.34 2.32 1 3 C-1 3.33333333 -3 3.66666667 -5 4 C-5.33 4.66 -5.66 5.32 -6 6 C-6.66 5.34 -7.32 4.68 -8 4 C-6.71349294 3.30289269 -5.42059335 2.61757124 -4.125 1.9375 C-3.40570313 1.55464844 -2.68640625 1.17179687 -1.9453125 0.77734375 C-1.30335937 0.52082031 -0.66140625 0.26429687 0 0 Z " fill="#DF9948" transform="translate(106,34)"/>
<path d="M0 0 C1.64666203 0.1135629 3.29236082 0.24117381 4.9375 0.375 C5.85402344 0.44460938 6.77054687 0.51421875 7.71484375 0.5859375 C8.84599609 0.79089844 8.84599609 0.79089844 10 1 C10.33 1.66 10.66 2.32 11 3 C8.83032311 3.95465783 7.43671207 4.14401212 5.17578125 3.3984375 C3.4315257 2.64129615 1.71372869 1.82390802 0 1 C0 0.67 0 0.34 0 0 Z " fill="#E39A50" transform="translate(107,466)"/>
<path d="M0 0 C1 3 1 3 1 5 C-1.90600261 6.25664978 -3.79604584 7 -7 7 C-5.625 5.5 -5.625 5.5 -4 4 C-3.34 4 -2.68 4 -2 4 C-1.34 2.68 -0.68 1.36 0 0 Z " fill="#E7B172" transform="translate(352,386)"/>
<path d="M0 0 C0.33 0 0.66 0 1 0 C1 1.98 1 3.96 1 6 C-0.65 5.67 -2.3 5.34 -4 5 C-4.33 3.68 -4.66 2.36 -5 1 C-4.01 1.33 -3.02 1.66 -2 2 C-2 2.66 -2 3.32 -2 4 C-1.34 4 -0.68 4 0 4 C0 2.68 0 1.36 0 0 Z " fill="#E5A259" transform="translate(217,369)"/>
<path d="M0 0 C0.66 0.33 1.32 0.66 2 1 C-0.65654657 4.73884332 -2.58110387 6.64978174 -7 8 C-5.08864614 4.46399535 -3.37357234 2.21027154 0 0 Z " fill="#D77B1A" transform="translate(369,371)"/>
<path d="M0 0 C-4.625 4 -4.625 4 -8 4 C-5.97675095 -0.48005146 -4.79569304 -1.43870791 0 0 Z " fill="#DA8327" transform="translate(269,303)"/>
<path d="M0 0 C2.125 0.375 2.125 0.375 4 1 C2.35830472 3.02054804 0.69088222 5.02043058 -1 7 C-1.33 7 -1.66 7 -2 7 C-2.125 4.625 -2.125 4.625 -2 2 C-1.34 1.34 -0.68 0.68 0 0 Z " fill="#DE994A" transform="translate(156,139)"/>
<path d="M0 0 C0.66 0 1.32 0 2 0 C2 0.99 2 1.98 2 3 C2.99 3.33 3.98 3.66 5 4 C5.33 5.98 5.66 7.96 6 10 C3.25722422 6.80009492 1.3697164 3.99500618 0 0 Z " fill="#E09A52" transform="translate(44,408)"/>
<path d="M0 0 C-5.625 3 -5.625 3 -9 3 C-8.67 2.01 -8.34 1.02 -8 0 C-4.71303767 -0.79953138 -3.28976808 -1.09658936 0 0 Z " fill="#DB9240" transform="translate(315,230)"/>
<path d="M0 0 C-2.31 1.65 -4.62 3.3 -7 5 C-7 3.35 -7 1.7 -7 0 C-3.98968256 -0.93423645 -3.13349732 -1.04449911 0 0 Z " fill="#E59E4E" transform="translate(188,113)"/>
<path d="M0 0 C-3.68734758 2.45823172 -6.69699971 3.01242616 -11 4 C-11 3.34 -11 2.68 -11 2 C-7.36576791 -0.32590854 -4.22911669 -0.16265833 0 0 Z " fill="#E7B468" transform="translate(260,72)"/>
<path d="M0 0 C0.33 0 0.66 0 1 0 C1.3125 2.3125 1.3125 2.3125 1 5 C-1.375 6.875 -1.375 6.875 -4 8 C-4.66 7.67 -5.32 7.34 -6 7 C-5.02433888 5.83040013 -4.044375 4.66438823 -3.0625 3.5 C-2.51722656 2.8503125 -1.97195312 2.200625 -1.41015625 1.53125 C-0.71212891 0.77328125 -0.71212891 0.77328125 0 0 Z " fill="#E3A75F" transform="translate(61,66)"/>
<path d="M0 0 C0 0.66 0 1.32 0 2 C-2.31 2 -4.62 2 -7 2 C-7.33 1.34 -7.66 0.68 -8 0 C-4.94736336 -0.98120464 -3.05263664 -0.98120464 0 0 Z " fill="#DD9236" transform="translate(320,68)"/>
<path d="M0 0 C4.875 2.625 4.875 2.625 6 6 C5.01 6.495 5.01 6.495 4 7 C4 6.34 4 5.68 4 5 C3.01 4.67 2.02 4.34 1 4 C0.3125 1.9375 0.3125 1.9375 0 0 Z " fill="#DDA162" transform="translate(205,364)"/>
<path d="M0 0 C1.31223496 3.93670488 0.24296256 6.12488144 -1 10 C-1.33 10 -1.66 10 -2 10 C-2.1953125 3.9453125 -2.1953125 3.9453125 -2 2 C-1.34 1.34 -0.68 0.68 0 0 Z " fill="#DF9B3C" transform="translate(105,230)"/>
<path d="M0 0 C0.33 1.32 0.66 2.64 1 4 C0.01 4.66 -0.98 5.32 -2 6 C-2.99 5.67 -3.98 5.34 -5 5 C-3.35 3.35 -1.7 1.7 0 0 Z " fill="#E2A45C" transform="translate(165,207)"/>
</svg>
